<svg width="14" height="14" viewBox="0 0 14 14" fill="none" xmlns="http://www.w3.org/2000/svg">
<path d="M6.41669 5.25033H7.58335V4.08366H6.41669M7.00002 11.667C4.42752 11.667 2.33335 9.57283 2.33335 7.00033C2.33335 4.42783 4.42752 2.33366 7.00002 2.33366C9.57252 2.33366 11.6667 4.42783 11.6667 7.00033C11.6667 9.57283 9.57252 11.667 7.00002 11.667ZM7.00002 1.16699C6.23398 1.16699 5.47543 1.31788 4.7677 1.61103C4.05997 1.90418 3.41691 2.33386 2.87523 2.87554C1.78127 3.9695 1.16669 5.45323 1.16669 7.00033C1.16669 8.54742 1.78127 10.0312 2.87523 11.1251C3.41691 11.6668 4.05997 12.0965 4.7677 12.3896C5.47543 12.6828 6.23398 12.8337 7.00002 12.8337C8.54712 12.8337 10.0308 12.2191 11.1248 11.1251C12.2188 10.0312 12.8334 8.54742 12.8334 7.00033C12.8334 6.23428 12.6825 5.47574 12.3893 4.76801C12.0962 4.06027 11.6665 3.41721 11.1248 2.87554C10.5831 2.33386 9.94007 1.90418 9.23234 1.61103C8.52461 1.31788 7.76607 1.16699 7.00002 1.16699ZM6.41669 9.91699H7.58335V6.41699H6.41669V9.91699Z" fill="white"/>
</svg>
