<svg width="14" height="14" viewBox="0 0 14 14" fill="none" xmlns="http://www.w3.org/2000/svg">
<path d="M13.4132 6.58788C13.3616 6.4549 13.2843 6.33341 13.1857 6.23038L7.76904 0.813717C7.66804 0.712708 7.54812 0.632584 7.41615 0.577919C7.28417 0.523253 7.14272 0.495117 6.99988 0.495117C6.71138 0.495117 6.43471 0.609721 6.23071 0.813717C6.1297 0.914725 6.04958 1.03464 5.99491 1.16661C5.94025 1.29859 5.91211 1.44004 5.91211 1.58288C5.91211 1.87138 6.02672 2.14805 6.23071 2.35205L9.80571 5.91622L1.58321 5.91622C1.29589 5.91622 1.02034 6.03035 0.817179 6.23352C0.614015 6.43668 0.499878 6.71223 0.499878 6.99955C0.499878 7.28687 0.614015 7.56242 0.817179 7.76558C1.02034 7.96875 1.29589 8.08288 1.58321 8.08288H9.80571L6.23071 11.6471C6.12917 11.7478 6.04858 11.8676 5.99358 11.9996C5.93858 12.1316 5.91026 12.2732 5.91026 12.4162C5.91026 12.5592 5.93858 12.7008 5.99358 12.8328C6.04858 12.9649 6.12917 13.0847 6.23071 13.1854C6.33142 13.2869 6.45124 13.3675 6.58325 13.4225C6.71527 13.4775 6.85686 13.5058 6.99988 13.5058C7.14289 13.5058 7.28449 13.4775 7.4165 13.4225C7.54852 13.3675 7.66833 13.2869 7.76904 13.1854L13.1857 7.76872C13.2843 7.66569 13.3616 7.5442 13.4132 7.41122C13.5216 7.14747 13.5216 6.85163 13.4132 6.58788Z" fill=""/>
</svg>
