<svg width="9" height="16" viewBox="0 0 9 16" fill="none" xmlns="http://www.w3.org/2000/svg">
<path d="M8.63751 1.175C8.82501 1.3625 8.91876 1.5845 8.91876 1.841C8.91876 2.0975 8.82501 2.31925 8.63751 2.50625L3.14376 8L8.65626 13.5125C8.83126 13.6875 8.91876 13.9062 8.91876 14.1687C8.91876 14.4312 8.82501 14.6563 8.63751 14.8438C8.45001 15.0313 8.22801 15.125 7.97151 15.125C7.71501 15.125 7.49326 15.0313 7.30626 14.8438L1.00626 8.525C0.931261 8.45 0.878011 8.36875 0.846511 8.28125C0.815011 8.19375 0.799511 8.1 0.800011 8C0.800011 7.9 0.815761 7.80625 0.847261 7.71875C0.878761 7.63125 0.931761 7.55 1.00626 7.475L7.32501 1.15625C7.50001 0.98125 7.71576 0.893749 7.97226 0.893749C8.22876 0.893749 8.45051 0.987499 8.63751 1.175Z" fill="white"/>
</svg>
