<svg width="24" height="24" viewBox="0 0 24 24" fill="none" xmlns="http://www.w3.org/2000/svg">
<rect width="24" height="24" rx="5.02" fill="url(#paint0_linear_319_758)"/>
<path d="M17.1573 13.5376L16.431 12.3291C16.2703 12.0655 16.1288 11.5577 16.1288 11.2491V10.0471C16.1288 7.71368 14.2325 5.81738 11.9056 5.81738C9.57216 5.82381 7.67586 7.71368 7.67586 10.0471V11.2427C7.67586 11.5513 7.53444 12.0591 7.38017 12.3226L6.65379 13.5311C6.37738 14.0004 6.3131 14.5339 6.48666 14.9967C6.66022 15.466 7.05233 15.8388 7.56658 16.006C8.26082 16.2374 8.96148 16.4045 9.67501 16.5266C9.74572 16.5395 9.81643 16.5459 9.88714 16.5588C9.97713 16.5716 10.0736 16.5845 10.17 16.5973C10.3371 16.6231 10.5042 16.6423 10.6778 16.6552C11.0828 16.6938 11.4942 16.7131 11.9056 16.7131C12.3105 16.7131 12.7155 16.6938 13.1141 16.6552C13.2619 16.6423 13.4097 16.6295 13.5512 16.6102C13.6669 16.5973 13.7826 16.5845 13.8983 16.5652C13.969 16.5588 14.0397 16.5459 14.1104 16.5331C14.8304 16.4174 15.5439 16.2374 16.2381 16.006C16.7331 15.8388 17.1123 15.466 17.2923 14.9903C17.4723 14.5082 17.4209 13.9811 17.1573 13.5376ZM12.3748 10.9277C12.3748 11.1977 12.1563 11.4163 11.8863 11.4163C11.6163 11.4163 11.3977 11.1977 11.3977 10.9277V8.93502C11.3977 8.66504 11.6163 8.44649 11.8863 8.44649C12.1563 8.44649 12.3748 8.66504 12.3748 8.93502V10.9277Z" fill="white"/>
<path d="M13.7117 17.3629C13.4417 18.1085 12.7282 18.6421 11.8926 18.6421C11.3847 18.6421 10.8833 18.4364 10.5298 18.07C10.3241 17.8771 10.1698 17.62 10.0798 17.3564C10.1634 17.3693 10.247 17.3757 10.337 17.3886C10.4848 17.4079 10.6391 17.4272 10.7934 17.44C11.1598 17.4722 11.5326 17.4914 11.9054 17.4914C12.2718 17.4914 12.6382 17.4722 12.9982 17.44C13.1332 17.4272 13.2682 17.4207 13.3967 17.4014C13.4996 17.3886 13.6024 17.3757 13.7117 17.3629Z" fill="white"/>
<defs>
<linearGradient id="paint0_linear_319_758" x1="12" y1="0" x2="12" y2="24" gradientUnits="userSpaceOnUse">
<stop stop-opacity="0.81"/>
<stop offset="1"/>
</linearGradient>
</defs>
</svg>
