<svg width="27" height="26" viewBox="0 0 27 26" fill="#000000" xmlns="http://www.w3.org/2000/svg">
<path d="M17.3822 2.1665H8.7155C4.92383 2.1665 3.29883 4.33317 3.29883 7.58317V18.4165C3.29883 21.6665 4.92383 23.8332 8.7155 23.8332H17.3822C21.1738 23.8332 22.7988 21.6665 22.7988 18.4165V7.58317C22.7988 4.33317 21.1738 2.1665 17.3822 2.1665ZM8.7155 13.2707H13.0488C13.493 13.2707 13.8613 13.639 13.8613 14.0832C13.8613 14.5273 13.493 14.8957 13.0488 14.8957H8.7155C8.27133 14.8957 7.903 14.5273 7.903 14.0832C7.903 13.639 8.27133 13.2707 8.7155 13.2707ZM17.3822 19.229H8.7155C8.27133 19.229 7.903 18.8607 7.903 18.4165C7.903 17.9723 8.27133 17.604 8.7155 17.604H17.3822C17.8263 17.604 18.1947 17.9723 18.1947 18.4165C18.1947 18.8607 17.8263 19.229 17.3822 19.229ZM20.0905 10.0207H17.9238C16.2772 10.0207 14.9447 8.68817 14.9447 7.0415V4.87484C14.9447 4.43067 15.313 4.06234 15.7572 4.06234C16.2013 4.06234 16.5697 4.43067 16.5697 4.87484V7.0415C16.5697 7.789 17.1763 8.39567 17.9238 8.39567H20.0905C20.5347 8.39567 20.903 8.764 20.903 9.20817C20.903 9.65234 20.5347 10.0207 20.0905 10.0207Z" fill=""/>
</svg>
