<svg width="59" height="59" viewBox="0 0 59 59" fill="none" xmlns="http://www.w3.org/2000/svg">
<rect x="0.80957" y="0.80957" width="57.381" height="57.381" rx="28.6905" fill="#EB4E1F"/>
<path d="M39.9536 34.0162C40.2125 33.7573 40.4301 33.4606 40.6006 33.1354L40.7309 32.8868C41.49 31.4385 41.3035 29.6534 40.3321 28.2665C39.7666 27.459 39.0611 26.7535 38.2536 26.1879C38.2218 26.1657 38.1898 26.1439 38.1577 26.1225C32.7927 22.4888 25.754 22.4888 20.3891 26.1224C20.3569 26.1438 20.3249 26.1657 20.2931 26.1879C19.4856 26.7535 18.7801 27.459 18.2145 28.2665C17.2432 29.6534 17.0567 31.4385 17.8158 32.8868L17.9461 33.1354C18.1165 33.4606 18.3342 33.7573 18.5931 34.0162C19.8375 35.2606 21.8552 35.0867 23.0944 33.8475L25.8741 31.0678C27.1133 29.8286 27.2872 27.8109 26.0427 26.5665C25.7839 26.3076 25.4872 26.0899 25.162 25.9195L24.9133 25.7892C24.8285 25.7447 24.7424 25.7034 24.6553 25.6654C27.6471 24.6479 30.8996 24.6479 33.8913 25.6654C33.8043 25.7034 33.7182 25.7447 33.6333 25.7892L33.3847 25.9195C33.0594 26.0899 32.7628 26.3076 32.5039 26.5665C31.2595 27.8109 31.4333 29.8286 32.6725 31.0678L35.4522 33.8475C36.6914 35.0867 38.7092 35.2606 39.9536 34.0162Z" fill="white"/>
</svg>
