<svg width="44" height="44" viewBox="0 0 44 44" fill="none" xmlns="http://www.w3.org/2000/svg">
<rect width="43.5702" height="43.5702" rx="21.7851" fill="#EB4E1F" fill-opacity="0.04"/>
<path d="M28.0564 28.8542C26.4239 28.8542 24.8326 28.4902 23.2826 27.7623C21.7321 27.0349 20.359 26.0731 19.1633 24.8769C17.9671 23.6812 17.0054 22.3081 16.2779 20.7576C15.55 19.2076 15.186 17.6163 15.186 15.9838C15.186 15.756 15.262 15.5662 15.4138 15.4143C15.5657 15.2625 15.7555 15.1865 15.9833 15.1865H19.0585C19.2357 15.1865 19.3939 15.2435 19.5331 15.3574C19.6723 15.4713 19.7546 15.6168 19.7799 15.794L20.2734 18.4516C20.2987 18.6287 20.2957 18.79 20.2643 18.9353C20.2324 19.081 20.1595 19.2109 20.0456 19.3248L18.2233 21.1851C18.7548 22.0963 19.4192 22.9505 20.2165 23.7478C21.0138 24.5451 21.8933 25.2348 22.8551 25.8169L24.6395 24.0325C24.7534 23.9186 24.9022 23.8331 25.086 23.7759C25.2692 23.7192 25.4494 23.7035 25.6266 23.7288L28.2462 24.2603C28.4234 24.2983 28.5689 24.3836 28.6828 24.5162C28.7967 24.6493 28.8537 24.8045 28.8537 24.9817V28.0569C28.8537 28.2847 28.7778 28.4745 28.6259 28.6264C28.474 28.7782 28.2842 28.8542 28.0564 28.8542Z" fill="#EB4E1F"/>
</svg>
