<svg width="34" height="34" viewBox="0 0 34 34" fill="none" xmlns="http://www.w3.org/2000/svg">
<path d="M25.3124 8.5625C24.4546 8.5625 23.6671 8.07031 23.2733 7.31094L22.2608 5.27188C21.614 3.99219 19.9265 2.9375 18.4921 2.9375H15.2718C13.8233 2.9375 12.1358 3.99219 11.489 5.27188L10.4765 7.31094C10.0827 8.07031 9.29521 8.5625 8.4374 8.5625C5.38584 8.5625 2.96709 11.1359 3.16396 14.1734L3.89521 25.7891C4.06396 28.6859 5.6249 31.0625 9.50615 31.0625H24.2437C28.1249 31.0625 29.6718 28.6859 29.8546 25.7891L30.5858 14.1734C30.7827 11.1359 28.364 8.5625 25.3124 8.5625ZM14.7655 10.3203H18.9843C19.5608 10.3203 20.039 10.7984 20.039 11.375C20.039 11.9516 19.5608 12.4297 18.9843 12.4297H14.7655C14.189 12.4297 13.7108 11.9516 13.7108 11.375C13.7108 10.7984 14.189 10.3203 14.7655 10.3203ZM16.8749 25.6063C14.2593 25.6063 12.1218 23.4828 12.1218 20.8531C12.1218 18.2234 14.2452 16.1 16.8749 16.1C19.5046 16.1 21.628 18.2234 21.628 20.8531C21.628 23.4828 19.4905 25.6063 16.8749 25.6063Z" fill="#CFCFCF"/>
</svg>
