<svg width="30" height="30" viewBox="0 0 30 30" fill="none" xmlns="http://www.w3.org/2000/svg">
<path opacity="0.5" d="M19.0912 23.4098C17.4278 23.4101 15.8018 22.9171 14.4186 21.9932C13.0355 21.0693 11.9573 19.756 11.3206 18.2194C10.6838 16.6827 10.517 14.9918 10.8413 13.3604C11.1655 11.7289 11.9663 10.2303 13.1423 9.05396C14.3183 7.87763 15.8167 7.07643 17.448 6.75169C19.0793 6.42694 20.7703 6.59324 22.3071 7.22954C23.844 7.86585 25.1576 8.94358 26.0819 10.3265C27.0062 11.7093 27.4997 13.3353 27.4999 14.9986V14.9998C27.4976 17.2294 26.611 19.367 25.0346 20.9436C23.4582 22.5203 21.3207 23.4072 19.0912 23.4098Z" fill="#FFE512"/>
<path d="M10.9088 23.4098C9.24544 23.4098 7.61946 22.9166 6.23644 21.9925C4.85342 21.0684 3.77549 19.7549 3.13896 18.2182C2.50242 16.6815 2.33588 14.9905 2.66038 13.3591C2.98488 11.7278 3.78586 10.2292 4.96202 9.05308C6.13818 7.87692 7.63669 7.07594 9.26807 6.75144C10.8995 6.42694 12.5904 6.59349 14.1272 7.23002C15.6639 7.86655 16.9773 8.94448 17.9014 10.3275C18.8255 11.7105 19.3188 13.3365 19.3188 14.9998C19.3165 17.2296 18.4297 19.3674 16.853 20.9441C15.2763 22.5207 13.1385 23.4075 10.9088 23.4098Z" fill="#FF3030"/>
</svg>
