<svg width="14" height="14" viewBox="0 0 14 14" fill="none" xmlns="http://www.w3.org/2000/svg">
<path d="M7.00004 0.333008C3.31337 0.333008 0.333374 3.33301 0.333374 6.99967C0.333374 10.6663 3.33337 13.6663 7.00004 13.6663C10.6667 13.6663 13.6667 10.6663 13.6667 6.99967C13.6667 3.33301 10.6667 0.333008 7.00004 0.333008ZM9.66671 9.29301C9.66671 9.51967 9.52004 9.66634 9.29337 9.66634H4.70671C4.48004 9.66634 4.33337 9.51967 4.33337 9.29301V8.99967H9.66671V9.29301ZM9.66671 8.33301H4.33337L3.66671 4.33301L5.66671 5.66634L7.00004 3.66634L8.33337 5.66634L10.3334 4.33301L9.66671 8.33301Z" fill="black"/>
</svg>
