<svg width="32" height="32" viewBox="0 0 32 32" fill="none" xmlns="http://www.w3.org/2000/svg">
<path d="M15.6618 2.73389C8.63189 2.73389 2.94946 8.45446 2.94946 15.4463C2.94946 22.4381 8.67003 28.1586 15.6618 28.1586C22.6536 28.1586 28.3742 22.4381 28.3742 15.4463C28.3742 8.45446 22.6536 2.73389 15.6618 2.73389ZM20.7468 19.8193C20.7468 20.2515 20.4671 20.5312 20.0349 20.5312H11.2888C10.8566 20.5312 10.5769 20.2515 10.5769 19.8193V19.26H20.7468V19.8193ZM20.7468 17.9887H10.5769L9.30565 10.3613L13.1194 12.9038L15.6618 9.09007L18.2043 12.9038L22.018 10.3613L20.7468 17.9887Z" fill="white"/>
</svg>
