<svg width="24" height="24" viewBox="0 0 24 24" fill="none" xmlns="http://www.w3.org/2000/svg">
<rect width="24" height="24" rx="5.02" fill="url(#paint0_linear_1017_1554)"/>
<path d="M11.8937 5.28613C10.2093 5.28613 8.83984 6.65555 8.83984 8.33999C8.83984 9.99228 10.1321 11.3295 11.8165 11.3874C11.868 11.381 11.9194 11.381 11.958 11.3874C11.9708 11.3874 11.9773 11.3874 11.9901 11.3874C11.9966 11.3874 11.9966 11.3874 12.003 11.3874C13.6489 11.3295 14.9411 9.99228 14.9476 8.33999C14.9476 6.65555 13.5781 5.28613 11.8937 5.28613Z" fill="white"/>
<path d="M15.1597 13.0971C13.366 11.9012 10.4407 11.9012 8.6341 13.0971C7.8176 13.6435 7.36755 14.3829 7.36755 15.1737C7.36755 15.9645 7.8176 16.6974 8.62767 17.2374C9.52775 17.8418 10.7107 18.144 11.8937 18.144C13.0767 18.144 14.2596 17.8418 15.1597 17.2374C15.9698 16.691 16.4198 15.958 16.4198 15.1608C16.4134 14.37 15.9698 13.6371 15.1597 13.0971ZM13.1409 15.7395C13.3274 15.9259 13.3274 16.2345 13.1409 16.4209C13.0445 16.5174 12.9224 16.5624 12.8002 16.5624C12.678 16.5624 12.5559 16.5174 12.4595 16.4209L11.8937 15.8552L11.3279 16.4209C11.2315 16.5174 11.1093 16.5624 10.9872 16.5624C10.865 16.5624 10.7429 16.5174 10.6464 16.4209C10.46 16.2345 10.46 15.9259 10.6464 15.7395L11.2122 15.1737L10.6464 14.6079C10.46 14.4215 10.46 14.1129 10.6464 13.9264C10.8329 13.74 11.1415 13.74 11.3279 13.9264L11.8937 14.4922L12.4595 13.9264C12.6459 13.74 12.9545 13.74 13.1409 13.9264C13.3274 14.1129 13.3274 14.4215 13.1409 14.6079L12.5752 15.1737L13.1409 15.7395Z" fill="white"/>
<defs>
<linearGradient id="paint0_linear_1017_1554" x1="12" y1="0" x2="12" y2="24" gradientUnits="userSpaceOnUse">
<stop/>
<stop offset="1"/>
</linearGradient>
</defs>
</svg>
