<svg width="20" height="22" viewBox="0 0 20 22" fill="none" xmlns="http://www.w3.org/2000/svg">
<path d="M14.3333 0.166992H5.66667C1.875 0.166992 0.25 2.33366 0.25 5.58366V16.417C0.25 19.667 1.875 21.8337 5.66667 21.8337H14.3333C18.125 21.8337 19.75 19.667 19.75 16.417V5.58366C19.75 2.33366 18.125 0.166992 14.3333 0.166992ZM5.66667 11.2712H10C10.4442 11.2712 10.8125 11.6395 10.8125 12.0837C10.8125 12.5278 10.4442 12.8962 10 12.8962H5.66667C5.2225 12.8962 4.85417 12.5278 4.85417 12.0837C4.85417 11.6395 5.2225 11.2712 5.66667 11.2712ZM14.3333 17.2295H5.66667C5.2225 17.2295 4.85417 16.8612 4.85417 16.417C4.85417 15.9728 5.2225 15.6045 5.66667 15.6045H14.3333C14.7775 15.6045 15.1458 15.9728 15.1458 16.417C15.1458 16.8612 14.7775 17.2295 14.3333 17.2295ZM17.0417 8.02116H14.875C13.2283 8.02116 11.8958 6.68866 11.8958 5.04199V2.87533C11.8958 2.43116 12.2642 2.06283 12.7083 2.06283C13.1525 2.06283 13.5208 2.43116 13.5208 2.87533V5.04199C13.5208 5.78949 14.1275 6.39616 14.875 6.39616H17.0417C17.4858 6.39616 17.8542 6.76449 17.8542 7.20866C17.8542 7.65282 17.4858 8.02116 17.0417 8.02116Z" fill="#EB4E1F"/>
</svg>
