<svg width="16" height="9" viewBox="0 0 16 9" fill="none" xmlns="http://www.w3.org/2000/svg">
<path d="M14.825 1.86256L8.52505 8.18131C8.45005 8.25631 8.3688 8.30956 8.2813 8.34106C8.1938 8.37256 8.10005 8.38806 8.00005 8.38756C7.90005 8.38756 7.8063 8.37181 7.7188 8.34031C7.6313 8.30881 7.55005 8.25581 7.47505 8.18131L1.1563 1.86256C0.981298 1.68756 0.893799 1.46881 0.893799 1.20631C0.893799 0.94381 0.987548 0.718811 1.17505 0.531311C1.36255 0.343811 1.5813 0.250061 1.8313 0.250061C2.0813 0.250061 2.30005 0.343811 2.48755 0.531311L8.00005 6.04381L13.5125 0.53131C13.6875 0.35631 13.9033 0.26881 14.1598 0.26881C14.4163 0.26881 14.638 0.36256 14.825 0.55006C15.0125 0.73756 15.1063 0.95631 15.1063 1.20631C15.1063 1.45631 15.0125 1.67506 14.825 1.86256Z" fill="#292D32"/>
</svg>
