<svg width="18" height="18" viewBox="0 0 18 18" fill="none" xmlns="http://www.w3.org/2000/svg">
<path d="M15.8248 6.86268L9.5248 13.1814C9.4498 13.2564 9.36856 13.3097 9.28105 13.3412C9.19355 13.3727 9.0998 13.3882 8.9998 13.3877C8.89981 13.3877 8.80606 13.3719 8.71855 13.3404C8.63105 13.3089 8.5498 13.2559 8.4748 13.1814L2.15605 6.86268C1.98105 6.68768 1.89355 6.46893 1.89355 6.20643C1.89355 5.94393 1.9873 5.71893 2.1748 5.53143C2.3623 5.34393 2.58105 5.25018 2.83105 5.25018C3.08105 5.25018 3.2998 5.34393 3.4873 5.53143L8.9998 11.0439L14.5123 5.53143C14.6873 5.35643 14.9031 5.26893 15.1596 5.26893C15.4161 5.26893 15.6378 5.36268 15.8248 5.55018C16.0123 5.73768 16.1061 5.95643 16.1061 6.20643C16.1061 6.45643 16.0123 6.67518 15.8248 6.86268Z" fill="#EB4E1F"/>
</svg>
