<svg width="18" height="18" viewBox="0 0 18 18" fill="none" xmlns="http://www.w3.org/2000/svg">
<circle cx="8.5098" cy="8.5098" r="8.5098" fill="#EB5021"/>
<path d="M10.8855 4.80078C10.7107 4.8012 10.5378 4.83623 10.3767 4.90382C10.2155 4.97142 10.0693 5.07026 9.94659 5.19464L4.83758 10.3035L4.81754 10.4046L4.46409 12.1817L4.36328 12.656L4.8379 12.5552L6.61489 12.2017L6.71569 12.1814L11.8247 7.0725C11.9494 6.94995 12.0484 6.8038 12.1161 6.64256C12.1837 6.48133 12.2185 6.30824 12.2185 6.13341C12.2185 5.95857 12.1837 5.78548 12.1161 5.62425C12.0484 5.46302 11.9494 5.31686 11.8247 5.19432C11.7019 5.06996 11.5557 4.97116 11.3945 4.90361C11.2332 4.83607 11.0603 4.80112 10.8855 4.80078ZM10.8855 5.41661C11.0483 5.41661 11.2125 5.49092 11.3701 5.64892C11.6845 5.96297 11.6845 6.30384 11.3701 6.61822L11.1381 6.84019L10.1786 5.8809L10.4008 5.64892C10.5588 5.49092 10.7226 5.41661 10.8855 5.41661ZM9.72462 6.33551L10.6836 7.29479L6.77643 11.2017C6.56551 10.789 6.22969 10.4534 5.81686 10.2428L9.72462 6.33551ZM5.40331 10.7681C5.59452 10.845 5.76822 10.9598 5.91396 11.1056C6.0597 11.2513 6.17449 11.425 6.25141 11.6162L5.19104 11.8282L5.40331 10.7681Z" fill="white"/>
<path d="M5.40331 10.7681C5.59452 10.845 5.76822 10.9598 5.91396 11.1056C6.0597 11.2513 6.17449 11.425 6.25141 11.6162L5.19104 11.8282L5.40331 10.7681Z" fill="white"/>
<path d="M10.8855 5.41661C11.0483 5.41661 11.2125 5.49092 11.3701 5.64892C11.6845 5.96297 11.6845 6.30384 11.3701 6.61822L11.1381 6.84019L10.1786 5.8809L10.4008 5.64892C10.5588 5.49092 10.7226 5.41661 10.8855 5.41661Z" fill="white"/>
</svg>
