<svg width="40" height="40" viewBox="0 0 40 40" fill="none" xmlns="http://www.w3.org/2000/svg">
<path d="M39.8751 28.5519C39.8751 35.6458 35.6461 39.8749 28.5521 39.8749H26.2329C25.1611 39.8749 24.2841 38.9979 24.2841 37.926V26.681C24.2841 26.1548 24.7128 25.7065 25.239 25.7065L28.6691 25.6481C28.9419 25.6286 29.1758 25.4337 29.2342 25.1608L29.9164 21.4385C29.9748 21.0877 29.702 20.7563 29.3317 20.7563L25.1805 20.8148C24.6348 20.8148 24.2061 20.3861 24.1866 19.8599L24.1087 15.0851C24.1087 14.7733 24.362 14.5004 24.6933 14.5004L29.3706 14.4225C29.7019 14.4225 29.9553 14.1691 29.9553 13.8378L29.8773 9.16046C29.8773 8.82915 29.624 8.57582 29.2927 8.57582L24.0307 8.65379C20.7956 8.71226 18.2231 11.3627 18.2815 14.5979L18.3789 19.9573C18.3984 20.503 17.9697 20.9318 17.424 20.9512L15.0853 20.9902C14.754 20.9902 14.5007 21.2435 14.5007 21.5748L14.5592 25.2778C14.5592 25.6091 14.8125 25.8624 15.1438 25.8624L17.4825 25.8235C18.0282 25.8235 18.4569 26.2522 18.4764 26.7784L18.6518 37.887C18.6712 38.9784 17.7943 39.8749 16.7029 39.8749H12.2205C5.12653 39.8749 0.897461 35.6458 0.897461 28.5324V12.2202C0.897461 5.12629 5.12653 0.897217 12.2205 0.897217H28.5521C35.6461 0.897217 39.8751 5.12629 39.8751 12.2202V28.5519Z" fill="#5872A7"/>
</svg>
