<svg width="24" height="23" viewBox="0 0 24 23" fill="none" xmlns="http://www.w3.org/2000/svg">
<g clip-path="url(#clip0_319_931)">
<path d="M7.12477 6.4372L4.66386 4.86041C4.61425 4.83001 4.57218 4.78875 4.54079 4.73975C4.50941 4.69075 4.48954 4.63527 4.48267 4.57749C4.47581 4.51971 4.48212 4.46112 4.50115 4.40613C4.52017 4.35114 4.5514 4.30117 4.59251 4.25998L5.51665 3.33584C5.69417 3.15832 5.99352 3.19661 6.12057 3.41415L7.65907 5.91509C7.86095 6.25968 7.46588 6.64605 7.12477 6.4372ZM4.97365 14.0218L2.11594 14.0792C2.05783 14.0805 2.00077 14.0949 1.94903 14.1214C1.89729 14.1479 1.85222 14.1857 1.81722 14.2321C1.78221 14.2785 1.75817 14.3322 1.74691 14.3892C1.73565 14.4463 1.73746 14.5051 1.7522 14.5613L2.08461 15.8248C2.14901 16.0685 2.42573 16.1851 2.64502 16.0633L5.17032 14.7423C5.51839 14.5457 5.37394 14.0131 4.97365 14.0218ZM11.6115 18.8757L10.9849 21.6586C10.9275 21.9005 11.1102 22.1337 11.3591 22.1337H12.6662C12.9185 22.1337 13.1012 21.8953 13.0386 21.6516L12.3581 18.8688C12.2572 18.4807 11.7055 18.4859 11.6115 18.8757ZM16.7108 6.4372L19.1717 4.86041C19.384 4.72988 19.4188 4.43576 19.2431 4.25998L18.3189 3.33584C18.2773 3.29435 18.2267 3.26295 18.171 3.24406C18.1153 3.22516 18.0561 3.21927 17.9978 3.22683C17.9394 3.23439 17.8837 3.25521 17.8346 3.28768C17.7856 3.32015 17.7447 3.36341 17.715 3.41415L16.1765 5.91509C15.9746 6.25968 16.3697 6.64605 16.7108 6.4372ZM18.8619 14.0218L21.7196 14.0792C21.7777 14.0805 21.8348 14.0949 21.8865 14.1214C21.9383 14.1479 21.9834 14.1857 22.0184 14.2321C22.0534 14.2785 22.0774 14.3322 22.0887 14.3892C22.0999 14.4463 22.0981 14.5051 22.0834 14.5613L21.751 15.8248C21.7359 15.8816 21.7081 15.9342 21.6696 15.9786C21.6312 16.023 21.5831 16.0581 21.529 16.0811C21.475 16.1041 21.4164 16.1144 21.3577 16.1113C21.2991 16.1082 21.2419 16.0918 21.1906 16.0633L18.6653 14.7423C18.3172 14.5457 18.4616 14.0131 18.8619 14.0218Z" fill="#FFC107"/>
<path d="M12.6227 1.28911L14.9653 6.63209C15.0534 6.83317 15.1939 7.00691 15.372 7.13518C15.5502 7.26345 15.7595 7.34154 15.9782 7.36131L21.6849 7.87298C22.3306 7.96696 22.5882 8.75884 22.12 9.21482L17.8212 12.8261C17.4732 13.1185 17.3148 13.578 17.4105 14.0218L18.6601 19.8712C18.7697 20.5134 18.0962 21.0042 17.5184 20.6996L12.5374 17.7827C12.3496 17.6725 12.1357 17.6143 11.9179 17.6143C11.7 17.6143 11.4861 17.6725 11.2983 17.7827L6.3173 20.6979C5.74123 21.0007 5.06596 20.5117 5.17561 19.8695L6.4252 14.02C6.51918 13.5762 6.36255 13.1168 6.01447 12.8244L1.71398 9.21656C1.24756 8.76232 1.50514 7.9687 2.14908 7.87472L7.8558 7.36305C8.07445 7.34328 8.28378 7.26519 8.46195 7.13692C8.64012 7.00865 8.78059 6.83491 8.8687 6.63383L11.2113 1.29085C11.5019 0.706076 12.3338 0.706076 12.6227 1.28911Z" fill="#FDD835"/>
<path d="M12.4526 6.95237L12.0558 3.01562C12.0401 2.79633 11.9949 2.42041 12.3465 2.42041C12.6249 2.42041 12.7763 2.99996 12.7763 2.99996L13.9668 6.1605C14.4158 7.3631 14.2313 7.77557 13.7979 8.01923C13.3002 8.29769 12.5657 8.08014 12.4526 6.95237Z" fill="#FFFF8D"/>
<path d="M17.3621 12.4759L20.7768 9.81132C20.9456 9.67035 21.2501 9.44584 21.0065 9.19001C20.8133 8.98812 20.2912 9.27877 20.2912 9.27877L17.3029 10.4466C16.4119 10.7546 15.8201 11.2106 15.7679 11.7849C15.7 12.5507 16.3875 13.1407 17.3621 12.4759Z" fill="#F4B400"/>
</g>
<defs>
<clipPath id="clip0_319_931">
<rect width="22.2769" height="22.2769" fill="white" transform="translate(0.77948 0.0307617)"/>
</clipPath>
</defs>
</svg>
