<svg width="58" height="59" viewBox="0 0 58 59" fill="none" xmlns="http://www.w3.org/2000/svg">
<rect y="0.80957" width="57.381" height="57.381" rx="28.6905" fill="#C8C8C8"/>
<path d="M29.614 34.2016L29.7262 34.9431H29.7262L29.614 34.2016ZM28.7477 34.2016L28.8599 33.46H28.8599L28.7477 34.2016ZM28.7412 21.267L28.6273 20.5257L28.7412 21.267ZM29.6205 21.267L29.7343 20.5257V20.5257L29.6205 21.267ZM25.1695 30.3831L24.4267 30.4868L25.1695 30.3831ZM25.1696 25.0902L25.9124 25.1939L25.1696 25.0902ZM33.1897 25.1078L33.9326 25.0051L33.1897 25.1078ZM33.1899 30.3655L32.4469 30.2629L33.1899 30.3655ZM29.711 34.1869L29.5988 33.4453L29.5988 33.4453L29.711 34.1869ZM29.7146 21.2815L29.6007 22.0228L29.7146 21.2815ZM28.6321 21.2838L28.746 22.0251L28.6321 21.2838ZM28.6357 34.1846L28.5234 34.9262H28.5234L28.6357 34.1846ZM36.7345 29.9112C36.7345 29.497 36.3987 29.1612 35.9845 29.1612C35.5703 29.1612 35.2345 29.497 35.2345 29.9112H36.7345ZM23.1187 29.9112C23.1187 29.497 22.7829 29.1612 22.3687 29.1612C21.9544 29.1612 21.6187 29.497 21.6187 29.9112H23.1187ZM28.4266 39.712C28.4266 40.1262 28.7623 40.462 29.1766 40.462C29.5908 40.462 29.9266 40.1262 29.9266 39.712H28.4266ZM28.746 22.0251L28.8551 22.0083L28.6273 20.5257L28.5182 20.5425L28.746 22.0251ZM29.5066 22.0083L29.6007 22.0228L29.8284 20.5402L29.7343 20.5257L29.5066 22.0083ZM29.5988 33.4453L29.5017 33.46L29.7262 34.9431L29.8233 34.9284L29.5988 33.4453ZM28.8599 33.46L28.7479 33.4431L28.5234 34.9262L28.6354 34.9431L28.8599 33.46ZM29.5017 33.46C29.2887 33.4923 29.073 33.4923 28.8599 33.46L28.6354 34.9431C28.9973 34.9979 29.3644 34.9979 29.7262 34.9431L29.5017 33.46ZM28.8551 22.0083C29.0713 21.9751 29.2903 21.9751 29.5066 22.0083L29.7343 20.5257C29.3671 20.4693 28.9945 20.4693 28.6273 20.5257L28.8551 22.0083ZM25.9122 30.2794C25.6771 28.595 25.6773 26.8784 25.9124 25.1939L24.4268 24.9865C24.1725 26.8084 24.1723 28.6647 24.4267 30.4868L25.9122 30.2794ZM32.4467 25.2104C32.678 26.8841 32.6782 28.5893 32.4469 30.2629L33.9328 30.4682C34.1829 28.6582 34.1827 26.8149 33.9326 25.0051L32.4467 25.2104ZM32.4469 30.2629C32.2095 31.9809 31.0091 33.2319 29.5988 33.4453L29.8233 34.9284C31.9878 34.6008 33.6186 32.7419 33.9328 30.4682L32.4469 30.2629ZM33.9326 25.0051C33.6186 22.7332 31.991 20.8724 29.8284 20.5402L29.6007 22.0228C31.0103 22.2393 32.2093 23.4926 32.4467 25.2104L33.9326 25.0051ZM25.9124 25.1939C26.151 23.4856 27.3442 22.2404 28.746 22.0251L28.5182 20.5425C26.3645 20.8733 24.7427 22.7247 24.4268 24.9865L25.9124 25.1939ZM24.4267 30.4868C24.7427 32.7504 26.3677 34.5999 28.5234 34.9262L28.7479 33.4431C27.3453 33.2308 26.1508 31.988 25.9122 30.2794L24.4267 30.4868ZM35.2345 29.9112C35.2345 33.789 32.4448 36.7841 29.1766 36.7841V38.2841C33.4282 38.2841 36.7345 34.4534 36.7345 29.9112H35.2345ZM29.1766 36.7841C25.9084 36.7841 23.1187 33.789 23.1187 29.9112H21.6187C21.6187 34.4534 24.925 38.2841 29.1766 38.2841V36.7841ZM28.4266 37.5341V39.712H29.9266V37.5341H28.4266Z" fill="black"/>
</svg>
