<svg width="14" height="14" viewBox="0 0 14 14" fill="none" xmlns="http://www.w3.org/2000/svg">
<path d="M4.59668 7.04116C4.59668 6.80199 4.79501 6.60366 5.03418 6.60366H8.23085V1.66866C8.22501 1.38866 8.00335 1.16699 7.72335 1.16699C4.28751 1.16699 1.89001 3.56449 1.89001 7.00033C1.89001 10.4362 4.28751 12.8337 7.72335 12.8337C7.99751 12.8337 8.22501 12.612 8.22501 12.332V7.47283H5.03418C4.78918 7.47866 4.59668 7.28033 4.59668 7.04116Z" fill="white"/>
<path d="M11.9816 6.73176L10.325 5.06926C10.1558 4.90009 9.87581 4.90009 9.70664 5.06926C9.53748 5.23842 9.53748 5.51842 9.70664 5.68759L10.6166 6.59759H8.22498V7.47259H10.6108L9.70081 8.38259C9.53164 8.55176 9.53164 8.83176 9.70081 9.00092C9.78831 9.08842 9.89914 9.12926 10.01 9.12926C10.1208 9.12926 10.2316 9.08842 10.3191 9.00092L11.9758 7.33842C12.1508 7.17509 12.1508 6.90092 11.9816 6.73176Z" fill="white"/>
</svg>
