<svg width="56" height="44" viewBox="0 0 56 44" fill="none" xmlns="http://www.w3.org/2000/svg">
<path d="M20.4089 3.7373H35.5355V31.2099H20.4089V3.7373Z" fill="#FF5F00"/>
<path d="M21.3695 17.4737C21.3695 11.8919 23.9625 6.94094 27.9482 3.73735C25.0191 1.40756 21.3216 0 17.2878 0C7.73128 0 0 7.81453 0 17.4737C0 27.1327 7.73128 34.9475 17.2876 34.9475C21.3213 34.9475 25.0189 33.5399 27.9482 31.2099C23.9625 28.055 21.3695 23.0556 21.3695 17.4737Z" fill="#EB001B"/>
<path d="M55.9445 17.4737C55.9445 27.1327 48.2132 34.9475 38.6569 34.9475C34.6231 34.9475 30.9256 33.5399 27.9963 31.2099C32.0301 28.0066 34.5752 23.0556 34.5752 17.4737C34.5752 11.8919 31.982 6.94094 27.9963 3.73735C30.9254 1.40756 34.6231 0 38.6569 0C48.2132 0 55.9447 7.86318 55.9447 17.4737H55.9445Z" fill="#F79E1B"/>
</svg>
