<svg width="36" height="36" viewBox="0 0 36 36" fill="none" xmlns="http://www.w3.org/2000/svg">
<rect width="36" height="36" rx="7" fill="#D9D9D9"/>
<path d="M22.1665 9.66699H13.8332C11.5332 9.66699 9.6665 11.5253 9.6665 13.817V18.8003V19.6337C9.6665 21.9253 11.5332 23.7837 13.8332 23.7837H15.0832C15.3082 23.7837 15.6082 23.9337 15.7498 24.117L16.9998 25.7753C17.5498 26.5087 18.4498 26.5087 18.9998 25.7753L20.2498 24.117C20.4082 23.9087 20.6582 23.7837 20.9165 23.7837H22.1665C24.4665 23.7837 26.3332 21.9253 26.3332 19.6337V13.817C26.3332 11.5253 24.4665 9.66699 22.1665 9.66699ZM14.6665 18.0003C14.1998 18.0003 13.8332 17.6253 13.8332 17.167C13.8332 16.7087 14.2082 16.3337 14.6665 16.3337C15.1248 16.3337 15.4998 16.7087 15.4998 17.167C15.4998 17.6253 15.1332 18.0003 14.6665 18.0003ZM17.9998 18.0003C17.5332 18.0003 17.1665 17.6253 17.1665 17.167C17.1665 16.7087 17.5415 16.3337 17.9998 16.3337C18.4582 16.3337 18.8332 16.7087 18.8332 17.167C18.8332 17.6253 18.4665 18.0003 17.9998 18.0003ZM21.3332 18.0003C20.8665 18.0003 20.4998 17.6253 20.4998 17.167C20.4998 16.7087 20.8748 16.3337 21.3332 16.3337C21.7915 16.3337 22.1665 16.7087 22.1665 17.167C22.1665 17.6253 21.7998 18.0003 21.3332 18.0003Z" fill="#292D32"/>
</svg>
