<svg width="60" height="60" viewBox="0 0 60 60" fill="none" xmlns="http://www.w3.org/2000/svg">
<path d="M54.5344 47.7891H5.47036C3.50161 47.7891 1.8938 46.1813 1.8938 44.2125V15.7875C1.8938 13.8188 3.50161 12.2109 5.47036 12.2109H54.5344C56.5032 12.2109 58.111 13.8188 58.111 15.7875V44.2125C58.111 46.1813 56.5032 47.7891 54.5344 47.7891Z" fill="#FFC107"/>
<path d="M1.88892 18.2251H58.1155V25.7579H1.88892V18.2251Z" fill="#424242"/>
<path d="M53.5313 34.7531H6.50166C6.04229 34.7531 5.6626 34.3781 5.6626 33.9141V29.9719C5.6626 29.5125 6.0376 29.1328 6.50166 29.1328H53.5313C53.9907 29.1328 54.3704 29.5078 54.3704 29.9719V33.9141C54.3657 34.3734 53.9907 34.7531 53.5313 34.7531Z" fill="white"/>
<path d="M11.2406 33.0424C11.5031 32.5362 11.5734 31.9455 11.8078 31.4252C12.0422 30.9049 12.5531 30.4221 13.1156 30.5112C13.6359 30.5955 13.9594 31.1158 14.1515 31.6033C14.4187 32.283 14.564 33.0096 14.5828 33.7408C14.5875 33.8908 14.5781 34.0549 14.4797 34.1721C14.3062 34.369 13.95 34.2705 13.814 34.0455C13.6781 33.8205 13.7109 33.5346 13.7719 33.2768C14.0625 32.0815 15 31.0643 16.1672 30.6799C16.289 30.6377 16.4156 30.6049 16.5422 30.6283C16.814 30.6799 16.964 30.9612 17.0859 31.2049C17.3719 31.7627 17.7187 32.2924 18.1172 32.7752C18.2765 32.9721 18.4594 33.1643 18.7031 33.2393C19.5047 33.4737 19.9687 32.2924 20.7422 31.9783C21.6703 31.6033 22.575 32.583 23.5594 32.7658C24.9984 33.033 25.7625 31.9127 27.0234 31.6268C27.1922 31.5893 27.375 31.5658 27.5437 31.6127C27.8531 31.7018 28.0453 31.9971 28.2281 32.2643C28.6547 32.8924 29.264 33.5112 30.0234 33.5158C30.5062 33.5205 30.9515 33.2721 31.3922 33.0612C32.9531 32.3158 34.7953 32.0065 36.4265 32.5783" stroke="#424242" stroke-width="1.875" stroke-miterlimit="10" stroke-linecap="round" stroke-linejoin="round"/>
</svg>
