<svg width="22" height="22" viewBox="0 0 22 22" fill="none" xmlns="http://www.w3.org/2000/svg">
<path d="M11.2194 1.19235L13.4385 6.25388C13.522 6.44437 13.6551 6.60896 13.8239 6.73047C13.9926 6.85198 14.1909 6.92596 14.3981 6.94469L19.8042 7.42941C20.4159 7.51844 20.6599 8.2686 20.2164 8.70056L16.1441 12.1216C15.8143 12.3986 15.6643 12.8339 15.755 13.2543L16.9387 18.7956C17.0426 19.404 16.4046 19.8689 15.8572 19.5804L11.1386 16.8171C10.9606 16.7127 10.758 16.6576 10.5516 16.6576C10.3453 16.6576 10.1427 16.7127 9.9647 16.8171L5.2461 19.5787C4.70038 19.8656 4.06068 19.4023 4.16455 18.7939L5.34832 13.2526C5.43735 12.8322 5.28897 12.397 4.95923 12.12L0.885274 8.70221C0.443421 8.2719 0.68743 7.52009 1.29745 7.43106L6.70356 6.94634C6.91069 6.92761 7.109 6.85363 7.27778 6.73212C7.44656 6.61061 7.57964 6.44602 7.66311 6.25553L9.88227 1.194C10.1576 0.640035 10.9457 0.640035 11.2194 1.19235Z" fill="#FDD835"/>
<path d="M11.058 6.55691L10.6821 2.82753C10.6672 2.61979 10.6244 2.26367 10.9574 2.26367C11.2212 2.26367 11.3646 2.81269 11.3646 2.81269L12.4924 5.80674C12.9177 6.946 12.743 7.33674 12.3324 7.56756C11.8609 7.83136 11.1651 7.62527 11.058 6.55691Z" fill="#FFFF8D"/>
<path d="M15.7089 11.7897L18.9437 9.26556C19.1036 9.13201 19.3921 8.91933 19.1613 8.67697C18.9783 8.48572 18.4837 8.76105 18.4837 8.76105L15.6529 9.86734C14.8087 10.1592 14.2482 10.5911 14.1987 11.1352C14.1344 11.8606 14.7856 12.4195 15.7089 11.7897Z" fill="#F4B400"/>
</svg>
