<svg width="52" height="60" viewBox="0 0 52 60" fill="none" xmlns="http://www.w3.org/2000/svg">
<g clip-path="url(#clip0_355_2339)">
<path d="M44.1122 4.67026C41.2819 1.51489 36.1656 0.162109 29.6203 0.162109H10.624C9.97643 0.162133 9.35009 0.388111 8.8576 0.799415C8.36511 1.21072 8.03879 1.78037 7.93729 2.40595L0.0276058 51.4722C-0.129613 52.4398 0.636371 53.3159 1.639 53.3159H13.3666L16.3119 35.0436L16.2205 35.6158C16.4304 34.3242 17.5597 33.3715 18.8971 33.3715H24.47C35.4181 33.3715 43.9906 29.0221 46.4947 16.4402C46.569 16.0681 46.6334 15.7059 46.6891 15.352C46.373 15.1883 46.373 15.1883 46.6891 15.352C47.4347 10.7016 46.684 7.53615 44.1122 4.67026Z" fill="#27346A"/>
<path d="M20.7994 13.6768C21.12 13.5275 21.4707 13.4501 21.8258 13.4503H36.7185C38.482 13.4503 40.1269 13.5626 41.63 13.7992C42.0507 13.8648 42.4691 13.9431 42.8847 14.034C43.4739 14.1612 44.0562 14.3168 44.6296 14.5003C45.3686 14.7417 46.0567 15.0228 46.6893 15.352C47.4347 10.6999 46.684 7.53615 44.1122 4.67026C41.2803 1.51489 36.1656 0.162109 29.6203 0.162109H10.6224C9.28483 0.162109 8.14692 1.11456 7.93729 2.40595L0.027607 51.4705C-0.129612 52.4396 0.636373 53.3146 1.63737 53.3146H13.3666L19.4772 15.4132C19.5373 15.0407 19.689 14.688 19.9194 14.3855C20.1497 14.0831 20.4517 13.8398 20.7994 13.6768Z" fill="#27346A"/>
<path d="M46.4948 16.4402C43.9906 29.0203 35.4184 33.3715 24.4701 33.3715H18.8956C17.5582 33.3715 16.4286 34.3242 16.2208 35.6158L12.5566 58.3353C12.4197 59.1821 13.0892 59.9493 13.9651 59.9493H23.8512C24.4175 59.9492 24.9652 59.7514 25.3957 59.3916C25.8263 59.0318 26.1114 58.5335 26.1999 57.9864L26.2962 57.4937L28.1595 45.9435L28.2795 45.3052C28.368 44.7581 28.6532 44.2599 29.0837 43.9C29.5142 43.5402 30.0618 43.3424 30.6281 43.3423H32.1076C41.6844 43.3423 49.1831 39.5368 51.3744 28.531C52.2891 23.9317 51.8158 20.0917 49.3962 17.3944C48.6623 16.5775 47.7509 15.9028 46.6892 15.3521C46.6317 15.7077 46.5693 16.0681 46.4948 16.4402Z" fill="#2790C3"/>
<path d="M44.0684 14.3301C43.6779 14.2186 43.2838 14.1199 42.8866 14.0341C42.4707 13.9447 42.0523 13.8669 41.6319 13.8009C40.1271 13.5627 38.4834 13.4502 36.7183 13.4502H21.8274C21.472 13.4494 21.1211 13.5275 20.801 13.6785C20.4529 13.841 20.1506 14.0841 19.9202 14.3866C19.6897 14.6892 19.5382 15.0422 19.4787 15.4149L16.3136 35.0436L16.2222 35.6158C16.4304 34.3242 17.5597 33.3716 18.8973 33.3716H24.4719C35.4199 33.3716 43.9922 29.0222 46.4963 16.4403C46.5709 16.0681 46.6334 15.7076 46.6909 15.3521C46.0568 15.0247 45.3704 14.7418 44.6312 14.502C44.4447 14.4415 44.2571 14.3842 44.0686 14.3301" fill="#1F264F"/>
</g>
<defs>
<clipPath id="clip0_355_2339">
<rect width="52" height="60" fill="white"/>
</clipPath>
</defs>
</svg>
