<svg width="26" height="26" viewBox="0 0 26 26" fill="#000000" xmlns="http://www.w3.org/2000/svg">
<path d="M13.0003 2.1665C10.162 2.1665 7.85449 4.474 7.85449 7.31234C7.85449 10.0965 10.032 12.3498 12.8703 12.4473C12.957 12.4365 13.0437 12.4365 13.1087 12.4473C13.1303 12.4473 13.1412 12.4473 13.1628 12.4473C13.1737 12.4473 13.1737 12.4473 13.1845 12.4473C15.9578 12.3498 18.1353 10.0965 18.1462 7.31234C18.1462 4.474 15.8387 2.1665 13.0003 2.1665Z" fill=""/>
<path d="M18.503 15.3291C15.4805 13.3141 10.5514 13.3141 7.50721 15.3291C6.13138 16.25 5.37305 17.4958 5.37305 18.8283C5.37305 20.1608 6.13138 21.3958 7.49638 22.3058C9.01305 23.3241 11.0064 23.8333 12.9997 23.8333C14.993 23.8333 16.9864 23.3241 18.503 22.3058C19.868 21.385 20.6264 20.15 20.6264 18.8066C20.6155 17.4741 19.868 16.2391 18.503 15.3291Z" fill=""/>
</svg>
