<svg width="34" height="34" viewBox="0 0 34 34" fill="none" xmlns="http://www.w3.org/2000/svg">
<g clip-path="url(#clip0_1088_2097)">
<path d="M32.8793 17.0268C33.0148 16.9655 33.1318 16.8667 33.2156 16.7427C33.2995 16.6187 33.3465 16.4751 33.3509 16.3295C33.3553 16.1839 33.3169 16.0428 33.2405 15.9237C33.164 15.8046 33.0528 15.7127 32.9207 15.6594L11.777 7.12807L11.7759 7.12705L11.1199 6.86109C10.9955 6.81078 10.8576 6.79672 10.7213 6.82046C10.585 6.8442 10.4557 6.90483 10.3476 6.99564C10.2394 7.08644 10.1568 7.2039 10.1087 7.33503C10.0606 7.46617 10.0489 7.60587 10.075 7.73871L10.2114 8.43867L10.2102 8.44186L11.8609 16.9807L9.6892 25.6354L9.68908 25.6396L9.50994 26.3491C9.47626 26.4836 9.47984 26.6226 9.5203 26.7507C9.56076 26.8788 9.63652 26.9911 9.73925 27.0752C9.84198 27.1593 9.96769 27.212 10.1025 27.2275C10.2374 27.243 10.3762 27.2206 10.5036 27.1628L32.8793 17.0268ZM28.9614 17.2055L13.1963 17.6832L13.3433 17.0976C13.3704 16.9902 13.3737 16.8796 13.3531 16.7736L13.2414 16.1959L29.0065 15.7182L30.7185 16.4093L28.9624 17.2065L28.9614 17.2055Z" fill="#EB4E1F"/>
</g>
<defs>
<clipPath id="clip0_1088_2097">
<rect width="23.0794" height="24.5218" fill="white" transform="translate(17.3398) rotate(45)"/>
</clipPath>
</defs>
</svg>
