<svg width="14" height="14" viewBox="0 0 14 14" fill="none" xmlns="http://www.w3.org/2000/svg">
<path d="M11.8767 7.42575C11.6608 7.42575 11.48 7.26242 11.4567 7.04659C11.3167 5.76325 10.6283 4.60825 9.56668 3.87325C9.37418 3.73909 9.32751 3.47659 9.46168 3.28409C9.59585 3.09159 9.85835 3.04492 10.0508 3.17909C11.3167 4.05992 12.1333 5.43659 12.3025 6.95909C12.3258 7.19242 12.1567 7.40242 11.9233 7.42575C11.9058 7.42575 11.8942 7.42575 11.8767 7.42575Z" fill="white"/>
<path d="M2.18167 7.45536C2.17001 7.45536 2.15251 7.45536 2.14084 7.45536C1.90751 7.43203 1.73834 7.22203 1.76167 6.9887C1.91917 5.4662 2.72417 4.08953 3.97834 3.20286C4.16501 3.06869 4.43334 3.11536 4.56751 3.30203C4.70167 3.49453 4.65501 3.75703 4.46834 3.8912C3.41834 4.63786 2.73584 5.79286 2.60751 7.07036C2.58417 7.29203 2.39751 7.45536 2.18167 7.45536Z" fill="white"/>
<path d="M9.3275 12.3079C8.61 12.652 7.84 12.827 7.035 12.827C6.195 12.827 5.39583 12.6404 4.64916 12.2612C4.43916 12.162 4.3575 11.9054 4.4625 11.6954C4.56166 11.4854 4.81833 11.4037 5.02833 11.5029C5.39583 11.6895 5.78666 11.8179 6.18333 11.8937C6.72 11.9987 7.26833 12.0045 7.805 11.9112C8.20166 11.8412 8.5925 11.7187 8.95416 11.5437C9.17 11.4445 9.42666 11.5262 9.52 11.742C9.625 11.952 9.54333 12.2087 9.3275 12.3079Z" fill="white"/>
<path d="M7.02916 1.17285C6.12499 1.17285 5.38416 1.90785 5.38416 2.81785C5.38416 3.72785 6.11916 4.46285 7.02916 4.46285C7.93916 4.46285 8.67416 3.72785 8.67416 2.81785C8.67416 1.90785 7.93916 1.17285 7.02916 1.17285Z" fill="white"/>
<path d="M2.94584 8.09082C2.04168 8.09082 1.30084 8.82582 1.30084 9.73582C1.30084 10.6458 2.03584 11.3808 2.94584 11.3808C3.85584 11.3808 4.59084 10.6458 4.59084 9.73582C4.59084 8.82582 3.85001 8.09082 2.94584 8.09082Z" fill="white"/>
<path d="M11.0542 8.09082C10.15 8.09082 9.40918 8.82582 9.40918 9.73582C9.40918 10.6458 10.1442 11.3808 11.0542 11.3808C11.9642 11.3808 12.6992 10.6458 12.6992 9.73582C12.6992 8.82582 11.9642 8.09082 11.0542 8.09082Z" fill="white"/>
</svg>
