<svg width="26" height="26" viewBox="0 0 26 26" fill="none" xmlns="http://www.w3.org/2000/svg">
<path d="M26 19.5002C26 20.2664 25.6956 21.0012 25.1539 21.543C24.6121 22.0847 23.8773 22.3891 23.1111 22.3891H2.88889C2.12271 22.3891 1.38791 22.0847 0.846136 21.543C0.304364 21.0012 0 20.2664 0 19.5002V6.50022C0 5.73404 0.304364 4.99924 0.846136 4.45746C1.38791 3.91569 2.12271 3.61133 2.88889 3.61133H23.1111C23.8773 3.61133 24.6121 3.91569 25.1539 4.45746C25.6956 4.99924 26 5.73404 26 6.50022V19.5002Z" fill="#C60A1D"/>
<path d="M0 8.66699H26V17.3337H0V8.66699Z" fill="#FFC400"/>
<path d="M6.5 12.2773V14.444C6.5 15.0186 6.72827 15.5697 7.1346 15.9761C7.54093 16.3824 8.09203 16.6107 8.66667 16.6107C9.2413 16.6107 9.7924 16.3824 10.1987 15.9761C10.6051 15.5697 10.8333 15.0186 10.8333 14.444V12.2773H6.5Z" fill="#EA596E"/>
<path d="M8.66663 11.5557H10.8333V13.7223H8.66663V11.5557Z" fill="#F4A2B2"/>
<path d="M6.5 11.5557H8.66667V13.7223H6.5V11.5557Z" fill="#DD2E44"/>
<path d="M8.66667 11.5553C9.86328 11.5553 10.8333 11.0703 10.8333 10.472C10.8333 9.8737 9.86328 9.38867 8.66667 9.38867C7.47005 9.38867 6.5 9.8737 6.5 10.472C6.5 11.0703 7.47005 11.5553 8.66667 11.5553Z" fill="#EA596E"/>
<path d="M8.66667 10.472C9.86328 10.472 10.8333 10.2295 10.8333 9.93034C10.8333 9.63118 9.86328 9.38867 8.66667 9.38867C7.47005 9.38867 6.5 9.63118 6.5 9.93034C6.5 10.2295 7.47005 10.472 8.66667 10.472Z" fill="#FFAC33"/>
<path d="M5.05554 11.5557H5.77776V16.6112H5.05554V11.5557ZM11.5555 11.5557H12.2778V16.6112H11.5555V11.5557Z" fill="#99AAB5"/>
<path d="M4.33337 15.8886H6.50004V16.6108H4.33337V15.8886ZM10.8334 15.8886H13V16.6108H10.8334V15.8886ZM5.0556 10.833H5.77782V11.5552H5.0556V10.833ZM11.5556 10.833H12.2778V11.5552H11.5556V10.833Z" fill="#66757F"/>
</svg>
