<svg width="150" height="25" viewBox="0 0 150 25" fill="none" xmlns="http://www.w3.org/2000/svg">
<path d="M14.3021 3.65625L16.1354 7.32292C16.3854 7.83333 17.0521 8.32292 17.6146 8.41667L20.9375 8.96875C23.0625 9.32292 23.5625 10.8646 22.0313 12.3854L19.4479 14.9688C19.0104 15.4063 18.7709 16.25 18.9063 16.8542L19.6459 20.0521C20.2292 22.5833 18.8854 23.5625 16.6459 22.2396L13.5313 20.3958C12.9688 20.0625 12.0417 20.0625 11.4688 20.3958L8.35419 22.2396C6.12503 23.5625 4.77086 22.5729 5.35419 20.0521L6.09378 16.8542C6.22919 16.25 5.98961 15.4063 5.55211 14.9688L2.96878 12.3854C1.44794 10.8646 1.93753 9.32292 4.06253 8.96875L7.38544 8.41667C7.93753 8.32292 8.60419 7.83333 8.85419 7.32292L10.6875 3.65625C11.6875 1.66667 13.3125 1.66667 14.3021 3.65625Z" stroke="#292D32" stroke-width="1.5625" stroke-linecap="round" stroke-linejoin="round"/>
<path d="M45.5521 3.65625L47.3854 7.32292C47.6354 7.83333 48.3021 8.32292 48.8646 8.41667L52.1875 8.96875C54.3125 9.32292 54.8125 10.8646 53.2813 12.3854L50.6979 14.9688C50.2604 15.4063 50.0209 16.25 50.1563 16.8542L50.8959 20.0521C51.4792 22.5833 50.1354 23.5625 47.8959 22.2396L44.7813 20.3958C44.2188 20.0625 43.2917 20.0625 42.7188 20.3958L39.6042 22.2396C37.375 23.5625 36.0209 22.5729 36.6042 20.0521L37.3438 16.8542C37.4792 16.25 37.2396 15.4063 36.8021 14.9688L34.2188 12.3854C32.6979 10.8646 33.1875 9.32292 35.3125 8.96875L38.6354 8.41667C39.1875 8.32292 39.8542 7.83333 40.1042 7.32292L41.9375 3.65625C42.9375 1.66667 44.5625 1.66667 45.5521 3.65625Z" stroke="#292D32" stroke-width="1.5625" stroke-linecap="round" stroke-linejoin="round"/>
<path d="M76.8021 3.65625L78.6354 7.32292C78.8854 7.83333 79.5521 8.32292 80.1146 8.41667L83.4375 8.96875C85.5625 9.32292 86.0625 10.8646 84.5313 12.3854L81.9479 14.9688C81.5104 15.4063 81.2709 16.25 81.4063 16.8542L82.1459 20.0521C82.7292 22.5833 81.3854 23.5625 79.1459 22.2396L76.0313 20.3958C75.4688 20.0625 74.5417 20.0625 73.9688 20.3958L70.8542 22.2396C68.625 23.5625 67.2709 22.5729 67.8542 20.0521L68.5938 16.8542C68.7292 16.25 68.4896 15.4063 68.0521 14.9688L65.4688 12.3854C63.9479 10.8646 64.4375 9.32292 66.5625 8.96875L69.8854 8.41667C70.4375 8.32292 71.1042 7.83333 71.3542 7.32292L73.1875 3.65625C74.1875 1.66667 75.8125 1.66667 76.8021 3.65625Z" stroke="#292D32" stroke-width="1.5625" stroke-linecap="round" stroke-linejoin="round"/>
<path d="M108.052 3.65625L109.885 7.32292C110.135 7.83333 110.802 8.32292 111.365 8.41667L114.688 8.96875C116.813 9.32292 117.313 10.8646 115.781 12.3854L113.198 14.9688C112.76 15.4063 112.521 16.25 112.656 16.8542L113.396 20.0521C113.979 22.5833 112.635 23.5625 110.396 22.2396L107.281 20.3958C106.719 20.0625 105.792 20.0625 105.219 20.3958L102.104 22.2396C99.875 23.5625 98.5209 22.5729 99.1042 20.0521L99.8438 16.8542C99.9792 16.25 99.7396 15.4063 99.3021 14.9688L96.7188 12.3854C95.1979 10.8646 95.6875 9.32292 97.8125 8.96875L101.135 8.41667C101.688 8.32292 102.354 7.83333 102.604 7.32292L104.438 3.65625C105.438 1.66667 107.063 1.66667 108.052 3.65625Z" stroke="#292D32" stroke-width="1.5625" stroke-linecap="round" stroke-linejoin="round"/>
<path d="M139.302 3.65625L141.135 7.32292C141.385 7.83333 142.052 8.32292 142.615 8.41667L145.938 8.96875C148.063 9.32292 148.563 10.8646 147.031 12.3854L144.448 14.9688C144.01 15.4063 143.771 16.25 143.906 16.8542L144.646 20.0521C145.229 22.5833 143.885 23.5625 141.646 22.2396L138.531 20.3958C137.969 20.0625 137.042 20.0625 136.469 20.3958L133.354 22.2396C131.125 23.5625 129.771 22.5729 130.354 20.0521L131.094 16.8542C131.229 16.25 130.99 15.4063 130.552 14.9688L127.969 12.3854C126.448 10.8646 126.938 9.32292 129.063 8.96875L132.385 8.41667C132.938 8.32292 133.604 7.83333 133.854 7.32292L135.688 3.65625C136.688 1.66667 138.313 1.66667 139.302 3.65625Z" stroke="#292D32" stroke-width="1.5625" stroke-linecap="round" stroke-linejoin="round"/>
</svg>
