<svg width="14" height="14" viewBox="0 0 14 14" fill="none" xmlns="http://www.w3.org/2000/svg">
<path fill-rule="evenodd" clip-rule="evenodd" d="M7.23333 9.625H8.02083C10.0345 9.625 11.6667 7.99283 11.6667 5.97917C11.6667 3.9655 10.0345 2.33333 8.02083 2.33333H5.97917C3.9655 2.33333 2.33333 3.9655 2.33333 5.97917C2.33333 8.33 3.67383 9.73583 5.08375 10.5834C5.79133 11.0087 6.50417 11.2834 7.04258 11.4517C7.10908 11.4724 7.17296 11.4917 7.23333 11.5092V9.625ZM7.81667 12.25C7.81667 12.25 7.59383 12.2124 7.23333 12.115C5.71375 11.7031 1.75 10.2229 1.75 5.97917C1.75 3.6435 3.6435 1.75 5.97917 1.75H8.02083C10.3565 1.75 12.25 3.6435 12.25 5.97917C12.25 8.31483 10.3565 10.2083 8.02083 10.2083H7.81667V12.25Z" fill="white"/>
<path fill-rule="evenodd" clip-rule="evenodd" d="M8.07655 3.64094C8.37697 3.84044 8.6033 4.16389 8.6033 4.5976C8.6033 5.05785 8.4178 5.39618 8.1171 5.60327C7.99838 5.68364 7.86736 5.74413 7.72918 5.78235V6.22919C7.72918 6.34522 7.68309 6.4565 7.60104 6.53854C7.51899 6.62059 7.40771 6.66668 7.29168 6.66668C7.17565 6.66668 7.06437 6.62059 6.98232 6.53854C6.90027 6.4565 6.85418 6.34522 6.85418 6.22919V5.41339C6.85415 5.30239 6.89632 5.19553 6.97214 5.11446C7.04796 5.03339 7.15176 4.98417 7.26251 4.97677C7.4241 4.96598 7.5466 4.93389 7.62039 4.88285C7.65031 4.86304 7.67445 4.83567 7.69039 4.80352C7.70789 4.76852 7.7283 4.7061 7.7283 4.59731C7.7283 4.50602 7.69272 4.43631 7.5921 4.36923C7.47776 4.29339 7.29401 4.23739 7.07322 4.23039C6.85505 4.22339 6.64301 4.26598 6.48697 4.34152C6.33064 4.41735 6.27318 4.50252 6.25714 4.56523C6.24285 4.62088 6.21774 4.67317 6.18325 4.71912C6.14875 4.76507 6.10554 4.80378 6.05608 4.83303C6.00663 4.86228 5.9519 4.8815 5.89501 4.8896C5.83813 4.8977 5.78021 4.89451 5.72455 4.88023C5.6689 4.86594 5.61661 4.84083 5.57066 4.80633C5.52471 4.77184 5.486 4.72863 5.45675 4.67917C5.4275 4.62972 5.40828 4.57499 5.40018 4.5181C5.39208 4.46122 5.39527 4.4033 5.40955 4.34764C5.51018 3.95652 5.80272 3.70102 6.10547 3.55431C6.4088 3.40702 6.76551 3.34489 7.10093 3.35569C7.4343 3.36619 7.79014 3.45019 8.07655 3.64094Z" fill="white"/>
<path d="M7.87498 7.87533C7.87498 8.03004 7.81352 8.17841 7.70413 8.2878C7.59473 8.3972 7.44636 8.45866 7.29165 8.45866C7.13694 8.45866 6.98856 8.3972 6.87917 8.2878C6.76977 8.17841 6.70831 8.03004 6.70831 7.87533C6.70831 7.72062 6.76977 7.57224 6.87917 7.46285C6.98856 7.35345 7.13694 7.29199 7.29165 7.29199C7.44636 7.29199 7.59473 7.35345 7.70413 7.46285C7.81352 7.57224 7.87498 7.72062 7.87498 7.87533Z" fill="white"/>
</svg>
