<svg width="24" height="24" viewBox="0 0 24 24" fill="none" xmlns="http://www.w3.org/2000/svg">
<rect width="24" height="24" rx="5.02" fill="url(#paint0_linear_1434_1842)"/>
<path d="M11.5 5.25C9.8625 5.25 8.53125 6.58125 8.53125 8.21875C8.53125 9.825 9.7875 11.125 11.425 11.1812C11.475 11.175 11.525 11.175 11.5625 11.1812C11.575 11.1812 11.5812 11.1812 11.5937 11.1812C11.6 11.1812 11.6 11.1812 11.6063 11.1812C13.2063 11.125 14.4625 9.825 14.4688 8.21875C14.4688 6.58125 13.1375 5.25 11.5 5.25Z" fill="white"/>
<path d="M14.675 12.8436C12.9312 11.6811 10.0875 11.6811 8.33123 12.8436C7.53748 13.3748 7.09998 14.0936 7.09998 14.8623C7.09998 15.6311 7.53748 16.3436 8.32498 16.8686C9.19998 17.4561 10.35 17.7498 11.5 17.7498C12.65 17.7498 13.8 17.4561 14.675 16.8686C15.4625 16.3373 15.9 15.6248 15.9 14.8498C15.8937 14.0811 15.4625 13.3686 14.675 12.8436Z" fill="white"/>
<defs>
<linearGradient id="paint0_linear_1434_1842" x1="12" y1="0" x2="12" y2="24" gradientUnits="userSpaceOnUse">
<stop/>
<stop offset="1"/>
</linearGradient>
</defs>
</svg>
