<svg width="58" height="59" viewBox="0 0 58 59" fill="none" xmlns="http://www.w3.org/2000/svg">
<rect x="0.619141" y="0.80957" width="57.381" height="57.381" rx="28.6905" fill="#C8C8C8"/>
<path d="M21.473 26.7277C21.8345 25.1716 23.0806 23.9466 24.6898 23.5655C26.8835 23.0459 29.2005 23.0518 31.3942 23.5714C32.9833 23.9478 34.2459 25.142 34.6457 26.6688L34.6699 26.7612C35.2632 29.0268 35.2632 31.3985 34.6699 33.664L34.6457 33.7565C34.2459 35.2832 32.9833 36.4775 31.3942 36.8539C29.2005 37.3735 26.8835 37.3794 24.6898 36.8598C23.0806 36.4786 21.8345 35.2536 21.473 33.6975L21.4133 33.4406C20.9195 31.3148 20.9195 29.1104 21.4133 26.9847L21.473 26.7277Z" stroke="black" stroke-width="1.5"/>
<path d="M34.7564 33.3154L34.9471 33.3766C34.9967 33.3925 35.045 33.4117 35.0917 33.4342L36.7221 34.2185C37.9705 34.8191 39.4394 33.9457 39.4394 32.6028L39.4394 28.1589C39.4394 26.74 37.8172 25.875 36.5667 26.627L35.1282 27.492C35.0573 27.5346 34.9917 27.5848 34.9326 27.6417L34.8794 27.6929C35.2301 29.554 35.1891 31.4662 34.7564 33.3154Z" stroke="black" stroke-width="1.5"/>
<path d="M20.0703 20.2607L35.145 41.1708" stroke="#C8C8C8" stroke-width="1.5" stroke-linecap="round"/>
<path d="M35.1452 38.7395L22.502 21.2334" stroke="black" stroke-width="1.5" stroke-linecap="round"/>
</svg>
