<svg width="22" height="22" viewBox="0 0 22 22" fill="none" xmlns="http://www.w3.org/2000/svg">
<path d="M15.5392 0.166992H6.46085C2.51752 0.166992 0.166687 2.51783 0.166687 6.46116V15.5287C0.166687 19.4828 2.51752 21.8337 6.46085 21.8337H15.5284C19.4717 21.8337 21.8225 19.4828 21.8225 15.5395V6.46116C21.8334 2.51783 19.4825 0.166992 15.5392 0.166992ZM13.8817 12.8745L12.495 13.6762L11.1084 14.4778C9.32085 15.507 7.85835 14.662 7.85835 12.6037V11.0003V9.39699C7.85835 7.32783 9.32085 6.49366 11.1084 7.52283L12.495 8.32449L13.8817 9.12616C15.6692 10.1553 15.6692 11.8453 13.8817 12.8745Z" fill="#EB4E1F"/>
</svg>
