<svg width="13" height="13" viewBox="0 0 13 13" fill="none" xmlns="http://www.w3.org/2000/svg">
<path d="M7.15625 7.4375L9.75 5.78125C9.94792 5.65625 10.0469 5.47917 10.0469 5.25C10.0469 5.02083 9.94792 4.84375 9.75 4.71875L7.15625 3.0625C6.94792 2.91667 6.73437 2.90625 6.51562 3.03125C6.29688 3.15625 6.1875 3.33854 6.1875 3.57812V6.92188C6.1875 7.16146 6.29688 7.34375 6.51562 7.46875C6.73437 7.59375 6.94792 7.58333 7.15625 7.4375ZM4 10.25C3.65625 10.25 3.36208 10.1277 3.1175 9.88313C2.8725 9.63813 2.75 9.34375 2.75 9V1.5C2.75 1.15625 2.8725 0.861875 3.1175 0.616875C3.36208 0.372292 3.65625 0.25 4 0.25H11.5C11.8438 0.25 12.1381 0.372292 12.3831 0.616875C12.6277 0.861875 12.75 1.15625 12.75 1.5V9C12.75 9.34375 12.6277 9.63813 12.3831 9.88313C12.1381 10.1277 11.8438 10.25 11.5 10.25H4ZM1.5 12.75C1.15625 12.75 0.862083 12.6277 0.6175 12.3831C0.3725 12.1381 0.25 11.8438 0.25 11.5V3.375C0.25 3.19792 0.31 3.04938 0.43 2.92938C0.549583 2.80979 0.697917 2.75 0.875 2.75C1.05208 2.75 1.20063 2.80979 1.32063 2.92938C1.44021 3.04938 1.5 3.19792 1.5 3.375V11.5H9.625C9.80208 11.5 9.95042 11.56 10.07 11.68C10.19 11.7996 10.25 11.9479 10.25 12.125C10.25 12.3021 10.19 12.4504 10.07 12.57C9.95042 12.69 9.80208 12.75 9.625 12.75H1.5Z" fill="#525252"/>
</svg>
