<svg width="44" height="44" viewBox="0 0 44 44" fill="none" xmlns="http://www.w3.org/2000/svg">
<rect x="0.429688" width="43.5702" height="43.5702" rx="21.7851" fill="#EB4E1F" fill-opacity="0.04"/>
<path d="M25.0125 18.6027C25.0125 17.9231 24.7425 17.2712 24.2619 16.7906C23.7813 16.31 23.1295 16.04 22.4498 16.04H17.0397C16.3601 16.04 15.7082 16.31 15.2276 16.7906C14.747 17.2712 14.4771 17.9231 14.4771 18.6027V25.4365C14.4771 26.1162 14.747 26.768 15.2276 27.2486C15.7082 27.7292 16.3601 27.9992 17.0397 27.9992H22.4498C23.1295 27.9992 23.7813 27.7292 24.2619 27.2486C24.7425 26.768 25.0125 26.1162 25.0125 25.4365V18.6027ZM25.8668 24.1837L28.7216 26.3249C29.4221 26.8506 30.4226 26.3506 30.4226 25.4747V18.5651C30.4226 17.6887 29.4226 17.1887 28.7216 17.7143L25.8668 19.8556V24.1837Z" fill="#EB4E1F"/>
</svg>
