<svg width="22" height="24" viewBox="0 0 22 24" fill="none" xmlns="http://www.w3.org/2000/svg">
<path d="M11 24C11.7956 24 12.5587 23.6839 13.1213 23.1213C13.6839 22.5587 14 21.7956 14 21H8C8 21.7956 8.31607 22.5587 8.87868 23.1213C9.44129 23.6839 10.2044 24 11 24ZM12.4925 1.64847C12.5134 1.4399 12.4904 1.22926 12.4249 1.03013C12.3595 0.831 12.253 0.647804 12.1124 0.492357C11.9717 0.336909 11.8001 0.212661 11.6085 0.127626C11.4169 0.0425914 11.2096 -0.00134277 11 -0.00134277C10.7904 -0.00134277 10.5831 0.0425914 10.3915 0.127626C10.1999 0.212661 10.0283 0.336909 9.88763 0.492357C9.74701 0.647804 9.64052 0.831 9.57505 1.03013C9.50958 1.22926 9.48656 1.4399 9.5075 1.64847C7.81208 1.99332 6.28793 2.91351 5.19315 4.25322C4.09836 5.59293 3.50022 7.26983 3.5 8.99997C3.5 10.647 2.75 18 0.5 19.5H21.5C19.25 18 18.5 10.647 18.5 8.99997C18.5 5.36997 15.92 2.33997 12.4925 1.64847Z" fill="#2D4555"/>
</svg>
