<svg width="30" height="20" viewBox="0 0 30 20" fill="none" xmlns="http://www.w3.org/2000/svg">
<g filter="url(#filter0_d_1_683)">
<path d="M20.063 1.6C20.063 1.44087 20.1262 1.28826 20.2387 1.17574C20.3512 1.06321 20.5039 1 20.663 1H25.361C25.5201 1 25.6727 1.06321 25.7853 1.17574C25.8978 1.28826 25.961 1.44087 25.961 1.6V2.688H20.063V1.6Z" fill="url(#paint0_linear_1_683)"/>
<path d="M20.063 1.6C20.063 1.44087 20.1262 1.28826 20.2387 1.17574C20.3512 1.06321 20.5039 1 20.663 1H25.361C25.5201 1 25.6727 1.06321 25.7853 1.17574C25.8978 1.28826 25.961 1.44087 25.961 1.6V2.688H20.063V1.6Z" fill="url(#paint1_radial_1_683)"/>
</g>
<g filter="url(#filter1_d_1_683)">
<path d="M4.07764 1.55C4.07764 1.40413 4.13558 1.26424 4.23873 1.16109C4.34187 1.05795 4.48177 1 4.62764 1H7.49664C7.64251 1 7.7824 1.05795 7.88555 1.16109C7.98869 1.26424 8.04664 1.40413 8.04664 1.55V2.688H4.07764V1.549V1.55Z" fill="url(#paint2_linear_1_683)"/>
<path d="M4.07764 1.55C4.07764 1.40413 4.13558 1.26424 4.23873 1.16109C4.34187 1.05795 4.48177 1 4.62764 1H7.49664C7.64251 1 7.7824 1.05795 7.88555 1.16109C7.98869 1.26424 8.04664 1.40413 8.04664 1.55V2.688H4.07764V1.549V1.55Z" fill="url(#paint3_radial_1_683)"/>
</g>
<g filter="url(#filter2_d_1_683)">
<path d="M1.03079 3.99194C1.03079 3.46151 1.2415 2.9528 1.61657 2.57773C1.99164 2.20266 2.50035 1.99194 3.03079 1.99194H26.9698C27.5002 1.99194 28.0089 2.20266 28.384 2.57773C28.7591 2.9528 28.9698 3.46151 28.9698 3.99194V5.65694C28.9698 5.72325 28.9434 5.78684 28.8966 5.83372C28.8497 5.8806 28.7861 5.90694 28.7198 5.90694H1.27979C1.21348 5.90694 1.14989 5.8806 1.10301 5.83372C1.05612 5.78684 1.02979 5.72325 1.02979 5.65694L1.03079 3.99194Z" fill="#DAD4E6"/>
<path d="M1.03079 3.99194C1.03079 3.46151 1.2415 2.9528 1.61657 2.57773C1.99164 2.20266 2.50035 1.99194 3.03079 1.99194H26.9698C27.5002 1.99194 28.0089 2.20266 28.384 2.57773C28.7591 2.9528 28.9698 3.46151 28.9698 3.99194V5.65694C28.9698 5.72325 28.9434 5.78684 28.8966 5.83372C28.8497 5.8806 28.7861 5.90694 28.7198 5.90694H1.27979C1.21348 5.90694 1.14989 5.8806 1.10301 5.83372C1.05612 5.78684 1.02979 5.72325 1.02979 5.65694L1.03079 3.99194Z" fill="url(#paint4_linear_1_683)"/>
<path d="M1.03079 3.99194C1.03079 3.46151 1.2415 2.9528 1.61657 2.57773C1.99164 2.20266 2.50035 1.99194 3.03079 1.99194H26.9698C27.5002 1.99194 28.0089 2.20266 28.384 2.57773C28.7591 2.9528 28.9698 3.46151 28.9698 3.99194V5.65694C28.9698 5.72325 28.9434 5.78684 28.8966 5.83372C28.8497 5.8806 28.7861 5.90694 28.7198 5.90694H1.27979C1.21348 5.90694 1.14989 5.8806 1.10301 5.83372C1.05612 5.78684 1.02979 5.72325 1.02979 5.65694L1.03079 3.99194Z" fill="url(#paint5_linear_1_683)"/>
<path d="M1.03079 3.99194C1.03079 3.46151 1.2415 2.9528 1.61657 2.57773C1.99164 2.20266 2.50035 1.99194 3.03079 1.99194H26.9698C27.5002 1.99194 28.0089 2.20266 28.384 2.57773C28.7591 2.9528 28.9698 3.46151 28.9698 3.99194V5.65694C28.9698 5.72325 28.9434 5.78684 28.8966 5.83372C28.8497 5.8806 28.7861 5.90694 28.7198 5.90694H1.27979C1.21348 5.90694 1.14989 5.8806 1.10301 5.83372C1.05612 5.78684 1.02979 5.72325 1.02979 5.65694L1.03079 3.99194Z" fill="url(#paint6_linear_1_683)"/>
<path d="M1.03079 3.99194C1.03079 3.46151 1.2415 2.9528 1.61657 2.57773C1.99164 2.20266 2.50035 1.99194 3.03079 1.99194H26.9698C27.5002 1.99194 28.0089 2.20266 28.384 2.57773C28.7591 2.9528 28.9698 3.46151 28.9698 3.99194V5.65694C28.9698 5.72325 28.9434 5.78684 28.8966 5.83372C28.8497 5.8806 28.7861 5.90694 28.7198 5.90694H1.27979C1.21348 5.90694 1.14989 5.8806 1.10301 5.83372C1.05612 5.78684 1.02979 5.72325 1.02979 5.65694L1.03079 3.99194Z" fill="url(#paint7_radial_1_683)"/>
<path d="M1.03079 3.99194C1.03079 3.46151 1.2415 2.9528 1.61657 2.57773C1.99164 2.20266 2.50035 1.99194 3.03079 1.99194H26.9698C27.5002 1.99194 28.0089 2.20266 28.384 2.57773C28.7591 2.9528 28.9698 3.46151 28.9698 3.99194V5.65694C28.9698 5.72325 28.9434 5.78684 28.8966 5.83372C28.8497 5.8806 28.7861 5.90694 28.7198 5.90694H1.27979C1.21348 5.90694 1.14989 5.8806 1.10301 5.83372C1.05612 5.78684 1.02979 5.72325 1.02979 5.65694L1.03079 3.99194Z" fill="url(#paint8_linear_1_683)"/>
</g>
<path d="M1.03076 18.11C1.03076 19.085 1.82076 19.875 2.79576 19.875H27.2038C28.1778 19.875 28.9688 19.085 28.9688 18.11C28.9688 18.0933 28.9621 18.0773 28.9503 18.0655C28.9385 18.0536 28.9225 18.047 28.9058 18.047H1.09376C1.07705 18.047 1.06103 18.0536 1.04921 18.0655C1.0374 18.0773 1.03076 18.0933 1.03076 18.11Z" fill="url(#paint9_linear_1_683)"/>
<path d="M1.03076 18.11C1.03076 19.085 1.82076 19.875 2.79576 19.875H27.2038C28.1778 19.875 28.9688 19.085 28.9688 18.11C28.9688 18.0933 28.9621 18.0773 28.9503 18.0655C28.9385 18.0536 28.9225 18.047 28.9058 18.047H1.09376C1.07705 18.047 1.06103 18.0536 1.04921 18.0655C1.0374 18.0773 1.03076 18.0933 1.03076 18.11Z" fill="url(#paint10_linear_1_683)"/>
<path d="M1.03076 18.11C1.03076 19.085 1.82076 19.875 2.79576 19.875H27.2038C28.1778 19.875 28.9688 19.085 28.9688 18.11C28.9688 18.0933 28.9621 18.0773 28.9503 18.0655C28.9385 18.0536 28.9225 18.047 28.9058 18.047H1.09376C1.07705 18.047 1.06103 18.0536 1.04921 18.0655C1.0374 18.0773 1.03076 18.0933 1.03076 18.11Z" fill="url(#paint11_linear_1_683)"/>
<path d="M1.03076 18.11C1.03076 19.085 1.82076 19.875 2.79576 19.875H27.2038C28.1778 19.875 28.9688 19.085 28.9688 18.11C28.9688 18.0933 28.9621 18.0773 28.9503 18.0655C28.9385 18.0536 28.9225 18.047 28.9058 18.047H1.09376C1.07705 18.047 1.06103 18.0536 1.04921 18.0655C1.0374 18.0773 1.03076 18.0933 1.03076 18.11Z" fill="url(#paint12_radial_1_683)"/>
<path d="M1.03076 18.11C1.03076 19.085 1.82076 19.875 2.79576 19.875H27.2038C28.1778 19.875 28.9688 19.085 28.9688 18.11C28.9688 18.0933 28.9621 18.0773 28.9503 18.0655C28.9385 18.0536 28.9225 18.047 28.9058 18.047H1.09376C1.07705 18.047 1.06103 18.0536 1.04921 18.0655C1.0374 18.0773 1.03076 18.0933 1.03076 18.11Z" fill="url(#paint13_radial_1_683)"/>
<path d="M1.03079 6.15698C1.03079 6.09068 1.05712 6.02709 1.10401 5.98021C1.15089 5.93332 1.21448 5.90698 1.28079 5.90698H28.7198C28.7861 5.90698 28.8497 5.93332 28.8966 5.98021C28.9434 6.02709 28.9698 6.09068 28.9698 6.15698V17.797C28.9698 17.8633 28.9434 17.9269 28.8966 17.9738C28.8497 18.0206 28.7861 18.047 28.7198 18.047H1.27979C1.21348 18.047 1.14989 18.0206 1.10301 17.9738C1.05612 17.9269 1.02979 17.8633 1.02979 17.797L1.03079 6.15698Z" fill="url(#paint14_linear_1_683)"/>
<path d="M1.03079 6.15698C1.03079 6.09068 1.05712 6.02709 1.10401 5.98021C1.15089 5.93332 1.21448 5.90698 1.28079 5.90698H28.7198C28.7861 5.90698 28.8497 5.93332 28.8966 5.98021C28.9434 6.02709 28.9698 6.09068 28.9698 6.15698V17.797C28.9698 17.8633 28.9434 17.9269 28.8966 17.9738C28.8497 18.0206 28.7861 18.047 28.7198 18.047H1.27979C1.21348 18.047 1.14989 18.0206 1.10301 17.9738C1.05612 17.9269 1.02979 17.8633 1.02979 17.797L1.03079 6.15698Z" fill="url(#paint15_linear_1_683)"/>
<path d="M1.03079 6.15698C1.03079 6.09068 1.05712 6.02709 1.10401 5.98021C1.15089 5.93332 1.21448 5.90698 1.28079 5.90698H28.7198C28.7861 5.90698 28.8497 5.93332 28.8966 5.98021C28.9434 6.02709 28.9698 6.09068 28.9698 6.15698V17.797C28.9698 17.8633 28.9434 17.9269 28.8966 17.9738C28.8497 18.0206 28.7861 18.047 28.7198 18.047H1.27979C1.21348 18.047 1.14989 18.0206 1.10301 17.9738C1.05612 17.9269 1.02979 17.8633 1.02979 17.797L1.03079 6.15698Z" fill="url(#paint16_linear_1_683)"/>
<path d="M1.03079 6.15698C1.03079 6.09068 1.05712 6.02709 1.10401 5.98021C1.15089 5.93332 1.21448 5.90698 1.28079 5.90698H28.7198C28.7861 5.90698 28.8497 5.93332 28.8966 5.98021C28.9434 6.02709 28.9698 6.09068 28.9698 6.15698V17.797C28.9698 17.8633 28.9434 17.9269 28.8966 17.9738C28.8497 18.0206 28.7861 18.047 28.7198 18.047H1.27979C1.21348 18.047 1.14989 18.0206 1.10301 17.9738C1.05612 17.9269 1.02979 17.8633 1.02979 17.797L1.03079 6.15698Z" fill="url(#paint17_linear_1_683)"/>
<path d="M1.03079 6.15698C1.03079 6.09068 1.05712 6.02709 1.10401 5.98021C1.15089 5.93332 1.21448 5.90698 1.28079 5.90698H28.7198C28.7861 5.90698 28.8497 5.93332 28.8966 5.98021C28.9434 6.02709 28.9698 6.09068 28.9698 6.15698V17.797C28.9698 17.8633 28.9434 17.9269 28.8966 17.9738C28.8497 18.0206 28.7861 18.047 28.7198 18.047H1.27979C1.21348 18.047 1.14989 18.0206 1.10301 17.9738C1.05612 17.9269 1.02979 17.8633 1.02979 17.797L1.03079 6.15698Z" fill="url(#paint18_linear_1_683)"/>
<path d="M1.03079 6.15698C1.03079 6.09068 1.05712 6.02709 1.10401 5.98021C1.15089 5.93332 1.21448 5.90698 1.28079 5.90698H28.7198C28.7861 5.90698 28.8497 5.93332 28.8966 5.98021C28.9434 6.02709 28.9698 6.09068 28.9698 6.15698V17.797C28.9698 17.8633 28.9434 17.9269 28.8966 17.9738C28.8497 18.0206 28.7861 18.047 28.7198 18.047H1.27979C1.21348 18.047 1.14989 18.0206 1.10301 17.9738C1.05612 17.9269 1.02979 17.8633 1.02979 17.797L1.03079 6.15698Z" fill="url(#paint19_linear_1_683)"/>
<path d="M1.03079 6.15698C1.03079 6.09068 1.05712 6.02709 1.10401 5.98021C1.15089 5.93332 1.21448 5.90698 1.28079 5.90698H28.7198C28.7861 5.90698 28.8497 5.93332 28.8966 5.98021C28.9434 6.02709 28.9698 6.09068 28.9698 6.15698V17.797C28.9698 17.8633 28.9434 17.9269 28.8966 17.9738C28.8497 18.0206 28.7861 18.047 28.7198 18.047H1.27979C1.21348 18.047 1.14989 18.0206 1.10301 17.9738C1.05612 17.9269 1.02979 17.8633 1.02979 17.797L1.03079 6.15698Z" fill="url(#paint20_radial_1_683)"/>
<g filter="url(#filter3_dddd_1_683)">
<path d="M14.9999 18.9621C18.8747 18.9621 22.0159 15.8209 22.0159 11.9461C22.0159 8.07122 18.8747 4.93005 14.9999 4.93005C11.1251 4.93005 7.98389 8.07122 7.98389 11.9461C7.98389 15.8209 11.1251 18.9621 14.9999 18.9621Z" fill="url(#paint21_radial_1_683)"/>
</g>
<g filter="url(#filter4_f_1_683)">
<path d="M14.9998 16.915C17.7441 16.915 19.9688 14.6904 19.9688 11.9461C19.9688 9.20175 17.7441 6.97705 14.9998 6.97705C12.2555 6.97705 10.0308 9.20175 10.0308 11.9461C10.0308 14.6904 12.2555 16.915 14.9998 16.915Z" stroke="url(#paint22_linear_1_683)" stroke-width="0.3"/>
<path d="M14.9998 16.915C17.7441 16.915 19.9688 14.6904 19.9688 11.9461C19.9688 9.20175 17.7441 6.97705 14.9998 6.97705C12.2555 6.97705 10.0308 9.20175 10.0308 11.9461C10.0308 14.6904 12.2555 16.915 14.9998 16.915Z" stroke="url(#paint23_linear_1_683)" stroke-width="0.3"/>
</g>
<path d="M14.9998 16.915C17.7441 16.915 19.9688 14.6904 19.9688 11.9461C19.9688 9.20175 17.7441 6.97705 14.9998 6.97705C12.2555 6.97705 10.0308 9.20175 10.0308 11.9461C10.0308 14.6904 12.2555 16.915 14.9998 16.915Z" fill="url(#paint24_radial_1_683)"/>
<path d="M14.9998 16.915C17.7441 16.915 19.9688 14.6904 19.9688 11.9461C19.9688 9.20175 17.7441 6.97705 14.9998 6.97705C12.2555 6.97705 10.0308 9.20175 10.0308 11.9461C10.0308 14.6904 12.2555 16.915 14.9998 16.915Z" fill="url(#paint25_linear_1_683)"/>
<g filter="url(#filter5_f_1_683)">
<path d="M14.9999 16.298C17.4035 16.298 19.3519 14.3495 19.3519 11.946C19.3519 9.54245 17.4035 7.59399 14.9999 7.59399C12.5964 7.59399 10.6479 9.54245 10.6479 11.946C10.6479 14.3495 12.5964 16.298 14.9999 16.298Z" fill="url(#paint26_radial_1_683)"/>
<path d="M14.9999 16.298C17.4035 16.298 19.3519 14.3495 19.3519 11.946C19.3519 9.54245 17.4035 7.59399 14.9999 7.59399C12.5964 7.59399 10.6479 9.54245 10.6479 11.946C10.6479 14.3495 12.5964 16.298 14.9999 16.298Z" fill="url(#paint27_radial_1_683)"/>
</g>
<path d="M14.9999 14.399C16.3546 14.399 17.4529 13.3008 17.4529 11.946C17.4529 10.5913 16.3546 9.49304 14.9999 9.49304C13.6451 9.49304 12.5469 10.5913 12.5469 11.946C12.5469 13.3008 13.6451 14.399 14.9999 14.399Z" fill="url(#paint28_linear_1_683)"/>
<path d="M14.9999 14.399C16.3546 14.399 17.4529 13.3008 17.4529 11.946C17.4529 10.5913 16.3546 9.49304 14.9999 9.49304C13.6451 9.49304 12.5469 10.5913 12.5469 11.946C12.5469 13.3008 13.6451 14.399 14.9999 14.399Z" fill="url(#paint29_radial_1_683)"/>
<path d="M14.9999 14.399C16.3546 14.399 17.4529 13.3008 17.4529 11.946C17.4529 10.5913 16.3546 9.49304 14.9999 9.49304C13.6451 9.49304 12.5469 10.5913 12.5469 11.946C12.5469 13.3008 13.6451 14.399 14.9999 14.399Z" fill="url(#paint30_radial_1_683)"/>
<path d="M17.6328 10.8078C18.0116 10.5429 18.0513 9.94579 17.7214 9.47424C17.3915 9.00268 16.8171 8.83521 16.4383 9.10018C16.0595 9.36515 16.0199 9.96223 16.3497 10.4338C16.6796 10.9053 17.2541 11.0728 17.6328 10.8078Z" fill="url(#paint31_linear_1_683)"/>
<g filter="url(#filter6_f_1_683)">
<path d="M28.0156 6.22705H28.4846V17.7271H28.0156V6.22705Z" fill="#8D8D92"/>
</g>
<defs>
<filter id="filter0_d_1_683" x="19.663" y="0.75" width="6.69795" height="2.48799" filterUnits="userSpaceOnUse" color-interpolation-filters="sRGB">
<feFlood flood-opacity="0" result="BackgroundImageFix"/>
<feColorMatrix in="SourceAlpha" type="matrix" values="0 0 0 0 0 0 0 0 0 0 0 0 0 0 0 0 0 0 127 0" result="hardAlpha"/>
<feOffset dy="0.15"/>
<feGaussianBlur stdDeviation="0.2"/>
<feComposite in2="hardAlpha" operator="out"/>
<feColorMatrix type="matrix" values="0 0 0 0 0.701961 0 0 0 0 0.709804 0 0 0 0 0.713726 0 0 0 1 0"/>
<feBlend mode="normal" in2="BackgroundImageFix" result="effect1_dropShadow_1_683"/>
<feBlend mode="normal" in="SourceGraphic" in2="effect1_dropShadow_1_683" result="shape"/>
</filter>
<filter id="filter1_d_1_683" x="3.67764" y="0.75" width="4.76924" height="2.48799" filterUnits="userSpaceOnUse" color-interpolation-filters="sRGB">
<feFlood flood-opacity="0" result="BackgroundImageFix"/>
<feColorMatrix in="SourceAlpha" type="matrix" values="0 0 0 0 0 0 0 0 0 0 0 0 0 0 0 0 0 0 127 0" result="hardAlpha"/>
<feOffset dy="0.15"/>
<feGaussianBlur stdDeviation="0.2"/>
<feComposite in2="hardAlpha" operator="out"/>
<feColorMatrix type="matrix" values="0 0 0 0 0.701961 0 0 0 0 0.709804 0 0 0 0 0.713726 0 0 0 1 0"/>
<feBlend mode="normal" in2="BackgroundImageFix" result="effect1_dropShadow_1_683"/>
<feBlend mode="normal" in="SourceGraphic" in2="effect1_dropShadow_1_683" result="shape"/>
</filter>
<filter id="filter2_d_1_683" x="0.729785" y="1.79194" width="28.5399" height="4.51504" filterUnits="userSpaceOnUse" color-interpolation-filters="sRGB">
<feFlood flood-opacity="0" result="BackgroundImageFix"/>
<feColorMatrix in="SourceAlpha" type="matrix" values="0 0 0 0 0 0 0 0 0 0 0 0 0 0 0 0 0 0 127 0" result="hardAlpha"/>
<feOffset dy="0.1"/>
<feGaussianBlur stdDeviation="0.15"/>
<feComposite in2="hardAlpha" operator="out"/>
<feColorMatrix type="matrix" values="0 0 0 0 0.796078 0 0 0 0 0.8 0 0 0 0 0.803922 0 0 0 1 0"/>
<feBlend mode="normal" in2="BackgroundImageFix" result="effect1_dropShadow_1_683"/>
<feBlend mode="normal" in="SourceGraphic" in2="effect1_dropShadow_1_683" result="shape"/>
</filter>
<filter id="filter3_dddd_1_683" x="7.58389" y="4.63005" width="14.7322" height="14.682" filterUnits="userSpaceOnUse" color-interpolation-filters="sRGB">
<feFlood flood-opacity="0" result="BackgroundImageFix"/>
<feColorMatrix in="SourceAlpha" type="matrix" values="0 0 0 0 0 0 0 0 0 0 0 0 0 0 0 0 0 0 127 0" result="hardAlpha"/>
<feOffset dy="-0.15"/>
<feGaussianBlur stdDeviation="0.075"/>
<feComposite in2="hardAlpha" operator="out"/>
<feColorMatrix type="matrix" values="0 0 0 0 0.545098 0 0 0 0 0.529412 0 0 0 0 0.580392 0 0 0 1 0"/>
<feBlend mode="normal" in2="BackgroundImageFix" result="effect1_dropShadow_1_683"/>
<feColorMatrix in="SourceAlpha" type="matrix" values="0 0 0 0 0 0 0 0 0 0 0 0 0 0 0 0 0 0 127 0" result="hardAlpha"/>
<feOffset dx="0.15"/>
<feGaussianBlur stdDeviation="0.075"/>
<feComposite in2="hardAlpha" operator="out"/>
<feColorMatrix type="matrix" values="0 0 0 0 0.564706 0 0 0 0 0.54902 0 0 0 0 0.6 0 0 0 1 0"/>
<feBlend mode="normal" in2="effect1_dropShadow_1_683" result="effect2_dropShadow_1_683"/>
<feColorMatrix in="SourceAlpha" type="matrix" values="0 0 0 0 0 0 0 0 0 0 0 0 0 0 0 0 0 0 127 0" result="hardAlpha"/>
<feOffset dy="0.15"/>
<feGaussianBlur stdDeviation="0.075"/>
<feComposite in2="hardAlpha" operator="out"/>
<feColorMatrix type="matrix" values="0 0 0 0 0.619608 0 0 0 0 0.623529 0 0 0 0 0.631373 0 0 0 1 0"/>
<feBlend mode="normal" in2="effect2_dropShadow_1_683" result="effect3_dropShadow_1_683"/>
<feColorMatrix in="SourceAlpha" type="matrix" values="0 0 0 0 0 0 0 0 0 0 0 0 0 0 0 0 0 0 127 0" result="hardAlpha"/>
<feOffset dx="-0.15" dy="0.1"/>
<feGaussianBlur stdDeviation="0.125"/>
<feComposite in2="hardAlpha" operator="out"/>
<feColorMatrix type="matrix" values="0 0 0 0 0.803922 0 0 0 0 0.803922 0 0 0 0 0.823529 0 0 0 1 0"/>
<feBlend mode="normal" in2="effect3_dropShadow_1_683" result="effect4_dropShadow_1_683"/>
<feBlend mode="normal" in="SourceGraphic" in2="effect4_dropShadow_1_683" result="shape"/>
</filter>
<filter id="filter4_f_1_683" x="9.48086" y="6.42703" width="11.0378" height="11.038" filterUnits="userSpaceOnUse" color-interpolation-filters="sRGB">
<feFlood flood-opacity="0" result="BackgroundImageFix"/>
<feBlend mode="normal" in="SourceGraphic" in2="BackgroundImageFix" result="shape"/>
<feGaussianBlur stdDeviation="0.2" result="effect1_foregroundBlur_1_683"/>
</filter>
<filter id="filter5_f_1_683" x="9.89795" y="6.84399" width="10.2041" height="10.204" filterUnits="userSpaceOnUse" color-interpolation-filters="sRGB">
<feFlood flood-opacity="0" result="BackgroundImageFix"/>
<feBlend mode="normal" in="SourceGraphic" in2="BackgroundImageFix" result="shape"/>
<feGaussianBlur stdDeviation="0.375" result="effect1_foregroundBlur_1_683"/>
</filter>
<filter id="filter6_f_1_683" x="27.3656" y="5.57705" width="1.76924" height="12.8" filterUnits="userSpaceOnUse" color-interpolation-filters="sRGB">
<feFlood flood-opacity="0" result="BackgroundImageFix"/>
<feBlend mode="normal" in="SourceGraphic" in2="BackgroundImageFix" result="shape"/>
<feGaussianBlur stdDeviation="0.325" result="effect1_foregroundBlur_1_683"/>
</filter>
<linearGradient id="paint0_linear_1_683" x1="20.406" y1="1.844" x2="26.438" y2="1.844" gradientUnits="userSpaceOnUse">
<stop offset="0.197" stop-color="#949597"/>
<stop offset="0.624" stop-color="#C1C2C4"/>
</linearGradient>
<radialGradient id="paint1_radial_1_683" cx="0" cy="0" r="1" gradientUnits="userSpaceOnUse" gradientTransform="translate(24.438 1.438) rotate(90) scale(0.21875 1.6875)">
<stop stop-color="#CFD0D2"/>
<stop offset="1" stop-color="#CFD0D2" stop-opacity="0"/>
</radialGradient>
<linearGradient id="paint2_linear_1_683" x1="4.30864" y1="1.844" x2="8.36764" y2="1.844" gradientUnits="userSpaceOnUse">
<stop offset="0.197" stop-color="#949597"/>
<stop offset="0.624" stop-color="#C1C2C4"/>
</linearGradient>
<radialGradient id="paint3_radial_1_683" cx="0" cy="0" r="1" gradientUnits="userSpaceOnUse" gradientTransform="translate(7.02164 1.438) rotate(90) scale(0.21875 1.13543)">
<stop stop-color="#CFD0D2"/>
<stop offset="1" stop-color="#CFD0D2" stop-opacity="0"/>
</radialGradient>
<linearGradient id="paint4_linear_1_683" x1="14.9998" y1="1.99194" x2="14.9998" y2="3.62494" gradientUnits="userSpaceOnUse">
<stop stop-color="#D8D8DC"/>
<stop offset="1" stop-color="#D8D8DC" stop-opacity="0"/>
</linearGradient>
<linearGradient id="paint5_linear_1_683" x1="1.03079" y1="5.31294" x2="2.59379" y2="5.31294" gradientUnits="userSpaceOnUse">
<stop offset="0.22" stop-color="#C6C3CC"/>
<stop offset="1" stop-color="#C6C3CC" stop-opacity="0"/>
</linearGradient>
<linearGradient id="paint6_linear_1_683" x1="28.9688" y1="5.56294" x2="26.4058" y2="5.56294" gradientUnits="userSpaceOnUse">
<stop offset="0.15" stop-color="#F9F7FE"/>
<stop offset="1" stop-color="#D3CDDD" stop-opacity="0"/>
</linearGradient>
<radialGradient id="paint7_radial_1_683" cx="0" cy="0" r="1" gradientUnits="userSpaceOnUse" gradientTransform="translate(28.968 2.75132) rotate(135.463) scale(1.70982 2.07599)">
<stop offset="0.15" stop-color="#F9F7FE"/>
<stop offset="1" stop-color="#F9F7FE" stop-opacity="0"/>
</radialGradient>
<linearGradient id="paint8_linear_1_683" x1="16.6248" y1="5.90694" x2="16.6248" y2="5.56294" gradientUnits="userSpaceOnUse">
<stop stop-color="#B6ADC6"/>
<stop offset="1" stop-color="#B6ADC6" stop-opacity="0"/>
</linearGradient>
<linearGradient id="paint9_linear_1_683" x1="14.9998" y1="18.047" x2="14.9998" y2="19.875" gradientUnits="userSpaceOnUse">
<stop stop-color="#CFC6DE"/>
<stop offset="1" stop-color="#C3B4D7"/>
</linearGradient>
<linearGradient id="paint10_linear_1_683" x1="16.3748" y1="19.875" x2="16.3748" y2="18.469" gradientUnits="userSpaceOnUse">
<stop stop-color="#AC91C9"/>
<stop offset="1" stop-color="#C2B3D6" stop-opacity="0"/>
</linearGradient>
<linearGradient id="paint11_linear_1_683" x1="14.9998" y1="18.047" x2="14.9998" y2="18.563" gradientUnits="userSpaceOnUse">
<stop stop-color="#CFCBD7"/>
<stop offset="1" stop-color="#CFCBD7" stop-opacity="0"/>
</linearGradient>
<radialGradient id="paint12_radial_1_683" cx="0" cy="0" r="1" gradientUnits="userSpaceOnUse" gradientTransform="translate(28.2808 17.657) rotate(90) scale(1.93749 1.25528)">
<stop offset="0.242" stop-color="#F7F4FE"/>
<stop offset="1" stop-color="#C8BCDB" stop-opacity="0"/>
</radialGradient>
<radialGradient id="paint13_radial_1_683" cx="0" cy="0" r="1" gradientUnits="userSpaceOnUse" gradientTransform="translate(13.2498 15.282) rotate(90) scale(4.59375 6.48312)">
<stop offset="0.645" stop-color="#9884AF"/>
<stop offset="1" stop-color="#9884AF" stop-opacity="0"/>
</radialGradient>
<linearGradient id="paint14_linear_1_683" x1="19.2808" y1="11.977" x2="28.2808" y2="11.977" gradientUnits="userSpaceOnUse">
<stop stop-color="#66636F"/>
<stop offset="1" stop-color="#6B6873"/>
</linearGradient>
<linearGradient id="paint15_linear_1_683" x1="1.03079" y1="13.657" x2="3.71879" y2="13.688" gradientUnits="userSpaceOnUse">
<stop offset="0.342" stop-color="#5E5C64"/>
<stop offset="1" stop-color="#5E5C64" stop-opacity="0"/>
</linearGradient>
<linearGradient id="paint16_linear_1_683" x1="0.687785" y1="12.157" x2="1.84379" y2="12.157" gradientUnits="userSpaceOnUse">
<stop stop-color="#8F8F91"/>
<stop offset="1" stop-color="#6D6C71" stop-opacity="0"/>
</linearGradient>
<linearGradient id="paint17_linear_1_683" x1="14.9998" y1="5.90698" x2="14.9998" y2="6.65698" gradientUnits="userSpaceOnUse">
<stop stop-color="#706F76"/>
<stop offset="1" stop-color="#706F76" stop-opacity="0"/>
</linearGradient>
<linearGradient id="paint18_linear_1_683" x1="14.9998" y1="5.90698" x2="14.9998" y2="6.23498" gradientUnits="userSpaceOnUse">
<stop stop-color="#5F5E65"/>
<stop offset="1" stop-color="#5F5E65" stop-opacity="0"/>
</linearGradient>
<linearGradient id="paint19_linear_1_683" x1="18.3128" y1="18.047" x2="18.3128" y2="17.438" gradientUnits="userSpaceOnUse">
<stop stop-color="#5C536A"/>
<stop offset="1" stop-color="#5C536A" stop-opacity="0"/>
</linearGradient>
<radialGradient id="paint20_radial_1_683" cx="0" cy="0" r="1" gradientUnits="userSpaceOnUse" gradientTransform="translate(12.6252 13.8748) rotate(53.678) scale(8.49414 8.46172)">
<stop offset="0.597" stop-color="#4B4357"/>
<stop offset="1" stop-color="#524C5D" stop-opacity="0"/>
</radialGradient>
<radialGradient id="paint21_radial_1_683" cx="0" cy="0" r="1" gradientUnits="userSpaceOnUse" gradientTransform="translate(20.3438 8.65659) rotate(143.867) scale(11.1822)">
<stop stop-color="#A6A2AE"/>
<stop offset="1" stop-color="#A6A2AF"/>
</radialGradient>
<linearGradient id="paint22_linear_1_683" x1="18.2808" y1="6.75005" x2="14.9998" y2="16.9141" gradientUnits="userSpaceOnUse">
<stop stop-color="#6A6375"/>
<stop offset="1" stop-color="#6A6375" stop-opacity="0"/>
</linearGradient>
<linearGradient id="paint23_linear_1_683" x1="11.8438" y1="15.7821" x2="13.6558" y2="13.3131" gradientUnits="userSpaceOnUse">
<stop offset="0.363" stop-color="#B7B6BD"/>
<stop offset="1" stop-color="#B7B6BD" stop-opacity="0"/>
</linearGradient>
<radialGradient id="paint24_radial_1_683" cx="0" cy="0" r="1" gradientUnits="userSpaceOnUse" gradientTransform="translate(17.7189 10.6247) rotate(143.911) scale(6.41935 5.9978)">
<stop offset="0.068" stop-color="#67616D"/>
<stop offset="1" stop-color="#4D3E5C"/>
</radialGradient>
<linearGradient id="paint25_linear_1_683" x1="18.4378" y1="6.97705" x2="11.4998" y2="15.844" gradientUnits="userSpaceOnUse">
<stop stop-color="#2C2634"/>
<stop offset="0.599" stop-color="#40344C"/>
</linearGradient>
<radialGradient id="paint26_radial_1_683" cx="0" cy="0" r="1" gradientUnits="userSpaceOnUse" gradientTransform="translate(17.3809 10.789) rotate(143.911) scale(5.62198 5.25279)">
<stop offset="0.068" stop-color="#67616D"/>
<stop offset="1" stop-color="#4D3E5C"/>
</radialGradient>
<radialGradient id="paint27_radial_1_683" cx="0" cy="0" r="1" gradientUnits="userSpaceOnUse" gradientTransform="translate(17.3746 10.1253) rotate(147.397) scale(7.30776 7.07082)">
<stop offset="0.78" stop-color="#554863" stop-opacity="0"/>
<stop offset="0.985" stop-color="#554863"/>
</radialGradient>
<linearGradient id="paint28_linear_1_683" x1="16.2809" y1="14.219" x2="13.0629" y2="9.93804" gradientUnits="userSpaceOnUse">
<stop stop-color="#463755"/>
<stop offset="1" stop-color="#473F51"/>
</linearGradient>
<radialGradient id="paint29_radial_1_683" cx="0" cy="0" r="1" gradientUnits="userSpaceOnUse" gradientTransform="translate(13.3747 13.7813) rotate(-48.614) scale(4.20681 2.88478)">
<stop stop-color="#544E5C"/>
<stop offset="1" stop-color="#544E5C" stop-opacity="0"/>
</radialGradient>
<radialGradient id="paint30_radial_1_683" cx="0" cy="0" r="1" gradientUnits="userSpaceOnUse" gradientTransform="translate(17.453 9.87485) rotate(146.088) scale(2.24049)">
<stop stop-color="#544E5C"/>
<stop offset="1" stop-color="#544E5C" stop-opacity="0"/>
</radialGradient>
<linearGradient id="paint31_linear_1_683" x1="17.0353" y1="9.18778" x2="17.405" y2="11.0002" gradientUnits="userSpaceOnUse">
<stop offset="0.051" stop-color="#F3F2F4"/>
<stop offset="1" stop-color="#F3F2F4" stop-opacity="0"/>
</linearGradient>
</defs>
</svg>
