<svg width="70" height="70" viewBox="0 0 70 70" fill="none" xmlns="http://www.w3.org/2000/svg">
<circle cx="35" cy="35" r="35" fill="#2D4555"/>
<g clip-path="url(#clip0_20_2273)">
<path fill-rule="evenodd" clip-rule="evenodd" d="M25.7315 24.3647C31.5785 20.2172 39.935 20.5562 45.341 25.1687C50.8415 29.8592 51.593 37.5257 47.069 43.0142C42.806 48.1847 35.1215 49.8888 28.7225 47.2218L28.3745 47.0702L21.812 48.4667L21.6995 48.4862L21.5345 48.4997L21.365 48.4937L21.299 48.4862L21.134 48.4562L20.9765 48.4052L20.8265 48.3392L20.7125 48.2762L20.5505 48.1607L20.429 48.0497L20.3195 47.9252L20.24 47.8127L20.1425 47.6402L20.0795 47.4812L20.033 47.3117L20.0135 47.1992L20 47.0343L20.006 46.8647L20.0135 46.7987L20.0435 46.6337L20.0765 46.5257L21.8015 41.3492L21.7685 41.2952C18.4535 35.6747 19.955 28.7072 25.385 24.6182L25.73 24.3662L25.7315 24.3647ZM26 31.4998C26 30.6713 26.6716 29.9998 27.5 29.9998H42.5C43.3284 29.9998 44 30.6713 44 31.4998C44 32.3282 43.3284 32.9998 42.5 32.9998H27.5C26.6716 32.9998 26 32.3282 26 31.4998ZM27.5 35.9998C26.6716 35.9998 26 36.6713 26 37.4998C26 38.3282 26.6716 38.9998 27.5 38.9998H35.5C36.3284 38.9998 37 38.3282 37 37.4998C37 36.6713 36.3284 35.9998 35.5 35.9998H27.5Z" fill="white"/>
</g>
<defs>
<clipPath id="clip0_20_2273">
<rect width="36" height="36" fill="white" transform="translate(17 17)"/>
</clipPath>
</defs>
</svg>
