<svg width="18" height="14" viewBox="0 0 18 14" fill="none" xmlns="http://www.w3.org/2000/svg">
<path d="M15.6667 0.333344H2.33341C1.41675 0.333344 0.675081 1.08334 0.675081 2.00001L0.666748 12C0.666748 12.9167 1.41675 13.6667 2.33341 13.6667H15.6667C16.5834 13.6667 17.3334 12.9167 17.3334 12V2.00001C17.3334 1.08334 16.5834 0.333344 15.6667 0.333344ZM15.3334 3.87501L9.44175 7.55834C9.17508 7.72501 8.82508 7.72501 8.55841 7.55834L2.66675 3.87501C2.58319 3.8281 2.51001 3.76473 2.45165 3.68872C2.3933 3.61272 2.35097 3.52566 2.32723 3.43282C2.30349 3.33998 2.29883 3.24329 2.31354 3.1486C2.32826 3.05391 2.36203 2.96319 2.41282 2.88193C2.4636 2.80067 2.53035 2.73056 2.60902 2.67584C2.68769 2.62112 2.77664 2.58294 2.87049 2.56359C2.96435 2.54425 3.06115 2.54415 3.15504 2.5633C3.24894 2.58245 3.33797 2.62045 3.41675 2.67501L9.00008 6.16668L14.5834 2.67501C14.6622 2.62045 14.7512 2.58245 14.8451 2.5633C14.939 2.54415 15.0358 2.54425 15.1297 2.56359C15.2235 2.58294 15.3125 2.62112 15.3911 2.67584C15.4698 2.73056 15.5366 2.80067 15.5873 2.88193C15.6381 2.96319 15.6719 3.05391 15.6866 3.1486C15.7013 3.24329 15.6967 3.33998 15.6729 3.43282C15.6492 3.52566 15.6069 3.61272 15.5485 3.68872C15.4901 3.76473 15.417 3.8281 15.3334 3.87501Z" fill="#2D4555"/>
</svg>
