<svg width="18" height="9" viewBox="0 0 18 9" fill="none" xmlns="http://www.w3.org/2000/svg">
<path d="M17.0391 5.71874C17.1214 5.86183 17.1438 6.03169 17.1014 6.19124C17.0589 6.35079 16.9551 6.48706 16.8125 6.5703C16.7183 6.62737 16.6101 6.65713 16.5 6.65624C16.3893 6.65723 16.2804 6.62882 16.1843 6.57392C16.0882 6.51901 16.0084 6.43958 15.9531 6.34374L14.5156 3.85936C13.6721 4.42674 12.7439 4.85658 11.7656 5.1328L12.2187 7.70311C12.2461 7.8666 12.2083 8.0343 12.1133 8.17016C12.0183 8.30603 11.8739 8.39921 11.7109 8.42968H11.6016C11.4545 8.43011 11.3119 8.37864 11.199 8.28432C11.0861 8.19 11.0101 8.05889 10.9844 7.91405L10.5391 5.3828C10.0295 5.45877 9.51517 5.49794 9 5.49999C8.48243 5.50023 7.9655 5.46368 7.45312 5.39062L7.00781 7.92186C6.98207 8.0667 6.90606 8.19782 6.79317 8.29213C6.68027 8.38645 6.53773 8.43792 6.39062 8.43749H6.28125C6.11831 8.40702 5.97383 8.31384 5.87887 8.17798C5.78391 8.04211 5.74605 7.87441 5.77343 7.71093L6.23437 5.1328C5.25298 4.85835 4.32191 4.42843 3.47656 3.85936L2.03125 6.35936C1.97541 6.45302 1.8966 6.53088 1.80227 6.58557C1.70793 6.64025 1.6012 6.66996 1.49218 6.67186C1.38266 6.67148 1.27516 6.64232 1.18046 6.58731C1.08575 6.53229 1.00716 6.45336 0.952568 6.35841C0.897974 6.26347 0.869288 6.15584 0.869385 6.04632C0.869482 5.93679 0.898358 5.82922 0.953121 5.73436L2.47656 3.09374C1.9442 2.63718 1.45514 2.13243 1.01562 1.58593C0.963679 1.5226 0.924863 1.44956 0.901434 1.37107C0.878005 1.29259 0.870433 1.21023 0.879159 1.12878C0.887885 1.04734 0.912734 0.968453 0.952259 0.896713C0.991783 0.824973 1.04519 0.761817 1.10937 0.710927C1.17222 0.658547 1.24485 0.619184 1.32304 0.595127C1.40124 0.57107 1.48343 0.562799 1.56485 0.570796C1.64627 0.578793 1.72529 0.602897 1.79731 0.641707C1.86933 0.680517 1.93292 0.733259 1.98437 0.796865C2.47341 1.40656 3.03187 1.95715 3.64843 2.43749H3.65625C5.18183 3.62754 7.06522 4.26635 9 4.24999C11.2891 4.24999 13.0469 3.4453 14.3359 2.4453H14.3516C14.9681 1.96496 15.5266 1.41437 16.0156 0.804677C16.0665 0.740497 16.1297 0.687089 16.2014 0.647564C16.2731 0.60804 16.352 0.583191 16.4335 0.574465C16.5149 0.565739 16.5973 0.573311 16.6758 0.59674C16.7543 0.620169 16.8273 0.658985 16.8906 0.710927C16.9548 0.761817 17.0082 0.824973 17.0477 0.896713C17.0873 0.968453 17.1121 1.04734 17.1208 1.12878C17.1296 1.21023 17.122 1.29259 17.0986 1.37107C17.0751 1.44956 17.0363 1.5226 16.9844 1.58593C16.5448 2.13243 16.0558 2.63718 15.5234 3.09374L17.0391 5.71874Z" fill="#B5B5B5"/>
</svg>
