<svg width="36" height="36" viewBox="0 0 36 36" fill="none" xmlns="http://www.w3.org/2000/svg">
<path d="M25.9312 1.125L19.575 10.6313H22.725L29.8125 1.125H25.9312Z" fill="#428BC1"/>
<path d="M22.7251 1.125L16.425 10.6313H19.575L25.9313 1.125H22.7251Z" fill="#E8E8E8"/>
<path d="M19.5749 1.125L13.2749 10.6313H16.4249L22.7249 1.125H19.5749Z" fill="#ED4C5C"/>
<path d="M18.0001 34.8751C24.3997 34.8751 29.5876 29.6872 29.5876 23.2876C29.5876 16.888 24.3997 11.7001 18.0001 11.7001C11.6005 11.7001 6.4126 16.888 6.4126 23.2876C6.4126 29.6872 11.6005 34.8751 18.0001 34.8751Z" fill="#FFCE31"/>
<path d="M12.2064 8.49377C11.9252 8.49377 11.7002 8.71877 11.7002 9.00002V13.725C11.7002 14.0063 11.9252 14.2313 12.2064 14.2313H23.7939C24.0752 14.2313 24.3002 14.0063 24.3002 13.725V9.00002C24.3002 8.71877 24.0752 8.49377 23.7939 8.49377H12.2064ZM23.2877 12.2063C23.2877 12.4875 23.0627 12.7125 22.7814 12.7125H13.2752C12.9939 12.7125 12.7689 12.4875 12.7689 12.2063V10.0688C12.7689 9.78752 12.9939 9.56252 13.2752 9.56252H22.7814C23.0627 9.56252 23.2877 9.78752 23.2877 10.0688V12.2063Z" fill="#FFCE31"/>
<path opacity="0.5" d="M8.0437 24.6375C8.0437 18.3375 12.8812 13.2188 19.0687 12.7688C18.7875 12.7688 18.45 12.7125 18.1687 12.7125C12.2625 12.7125 7.4812 17.4938 7.4812 23.4563C7.4812 25.2 7.9312 26.8875 8.66245 28.35C8.2687 27.1688 8.0437 25.9313 8.0437 24.6375Z" fill="#89664C"/>
<path opacity="0.33" d="M22.4437 32.2313C27.675 28.7438 29.25 21.9375 26.2125 16.65L26.7187 17.325C29.9812 22.1625 28.6312 28.7438 23.7375 32.0625C22.275 33.075 20.6437 33.6375 19.0125 33.8063C20.25 33.4688 21.375 32.9625 22.4437 32.2313Z" fill="white"/>
<path d="M13.275 10.6313H16.425L10.0688 1.125H6.1875L13.275 10.6313Z" fill="#ED4C5C"/>
<path d="M16.4251 10.6313H19.5751L13.2751 1.125H10.0688L16.4251 10.6313Z" fill="#E8E8E8"/>
<path opacity="0.5" d="M18.5062 2.69995L16.9312 5.06245L20.6437 10.6312H22.7249L23.2874 9.8437L18.5062 2.69995Z" fill="#3E4347"/>
<path d="M19.5749 10.6313H22.7249L16.4249 1.125H13.2749L19.5749 10.6313Z" fill="#428BC1"/>
<path opacity="0.5" d="M15.075 19.8V20.3625C15.6375 20.3625 16.1437 20.25 16.65 20.025V19.2375C16.2 19.575 15.6937 19.7438 15.075 19.8ZM18.7875 16.1438H19.2937V28.2938H18.7875V16.1438ZM20.925 28.8V30.375H15.075V30.9375H21.4312V28.8H20.925Z" fill="#89664C"/>
<path opacity="0.33" d="M19.2937 28.2937H20.8687V28.8H19.2937V28.2937ZM17.2125 16.1437H18.7875V15.6375H16.65C16.65 16.8187 15.6937 17.775 14.5125 17.775V19.8562C14.6812 19.8562 14.85 19.8562 15.0187 19.8V18.225C16.2562 18.2812 17.2125 17.325 17.2125 16.1437ZM17.2125 28.8V19.8C17.0437 19.9125 16.875 19.9687 16.7062 20.0812V28.2937H14.5687V30.375H15.075V28.8H17.2125Z" fill="white"/>
</svg>
