<svg width="32" height="32" viewBox="0 0 32 32" fill="none" xmlns="http://www.w3.org/2000/svg">
<path d="M27.3333 28H8.66667C7.2 28 6 26.8 6 25.3334V12C6 10.5334 7.2 9.33337 8.66667 9.33337H27.3333C28.8 9.33337 30 10.5334 30 12V25.3334C30 26.8 28.8 28 27.3333 28Z" fill="#E65100"/>
<path d="M23.3333 24H4.66667C3.2 24 2 22.8 2 21.3334V8.00004C2 6.53337 3.2 5.33337 4.66667 5.33337H23.3333C24.8 5.33337 26 6.53337 26 8.00004V21.3334C26 22.8 24.8 24 23.3333 24Z" fill="#F57C00"/>
<path d="M20 12.6666C21.1046 12.6666 22 11.7712 22 10.6666C22 9.56206 21.1046 8.66663 20 8.66663C18.8954 8.66663 18 9.56206 18 10.6666C18 11.7712 18.8954 12.6666 20 12.6666Z" fill="#FFF9C4"/>
<path d="M11.3335 11.9333L5.3335 20.6667H17.3335L11.3335 11.9333Z" fill="#942A09"/>
<path d="M18.6665 15.6666L14.6665 20.6666H22.6665L18.6665 15.6666Z" fill="#BF360C"/>
</svg>
