<svg width="17" height="17" viewBox="0 0 17 17" fill="none" xmlns="http://www.w3.org/2000/svg">
<path d="M8.50008 1.41669C8.34567 1.41669 8.19408 1.4181 8.04533 1.42023L7.609 1.43227L7.39721 1.44148L6.98708 1.46556L6.59537 1.49815C3.206 1.82681 1.82687 3.20594 1.49821 6.59531L1.46562 6.98702L1.44154 7.39715C1.438 7.46656 1.43446 7.5374 1.43233 7.60894L1.42029 8.04527L1.41746 8.27052L1.41675 8.50002C1.41675 8.65444 1.41816 8.80602 1.42029 8.95477L1.43233 9.3911L1.44154 9.6029L1.46562 10.013L1.49821 10.4047C1.82687 13.7941 3.206 15.1732 6.59537 15.5019L6.98708 15.5345L7.39721 15.5586C7.46662 15.5621 7.53746 15.5656 7.609 15.5678L8.04533 15.5798L8.50008 15.5834L8.95483 15.5798L9.39117 15.5678L9.60296 15.5586L10.0131 15.5345L10.4048 15.5019C13.7942 15.1732 15.1733 13.7941 15.502 10.4047L15.5345 10.013L15.5586 9.6029C15.5622 9.53348 15.5657 9.46265 15.5678 9.3911L15.5799 8.95477L15.5834 8.50002L15.5799 8.04527L15.5678 7.60894L15.5586 7.39715L15.5345 6.98702L15.502 6.59531C15.1733 3.20594 13.7942 1.82681 10.4048 1.49815L10.0131 1.46556L9.60296 1.44148C9.53238 1.43803 9.46178 1.43496 9.39117 1.43227L8.95483 1.42023L8.72958 1.4174L8.50008 1.41669ZM8.50717 4.95835C8.68771 4.95855 8.86135 5.02768 8.99263 5.15162C9.12391 5.27556 9.20291 5.44495 9.2135 5.62518C9.22408 5.8054 9.16544 5.98287 9.04956 6.12132C8.93368 6.25976 8.76932 6.34874 8.59004 6.37006L8.50008 6.37502C8.31954 6.37482 8.14589 6.30569 8.01461 6.18175C7.88333 6.05782 7.80433 5.88843 7.79375 5.7082C7.78317 5.52797 7.84181 5.3505 7.95769 5.21206C8.07356 5.07361 8.23793 4.98464 8.41721 4.96331L8.50717 4.95835ZM8.50008 7.79169C8.67358 7.79171 8.84103 7.85541 8.97068 7.97069C9.10033 8.08598 9.18316 8.24484 9.20346 8.41715L9.20842 8.50002V10.625L9.29129 10.63C9.4494 10.6486 9.59662 10.72 9.7092 10.8326C9.82178 10.9451 9.89314 11.0924 9.91179 11.2505L9.91675 11.3334C9.91673 11.5068 9.85303 11.6743 9.73774 11.804C9.62245 11.9336 9.46359 12.0164 9.29129 12.0367L9.20842 12.0417H8.50008C8.32659 12.0417 8.15913 11.978 8.02948 11.8627C7.89983 11.7474 7.81701 11.5885 7.79671 11.4162L7.79175 11.3334V9.20835C7.61121 9.20815 7.43756 9.13902 7.30628 9.01509C7.175 8.89115 7.096 8.72176 7.08542 8.54153C7.07484 8.3613 7.13348 8.18384 7.24935 8.04539C7.36523 7.90694 7.5296 7.81797 7.70887 7.79665L7.79175 7.79169H8.50008Z" fill="#2D4555" fill-opacity="0.68"/>
</svg>
