<svg width="14" height="19" viewBox="0 0 14 19" fill="none" xmlns="http://www.w3.org/2000/svg">
<path d="M6.99992 14.1667C7.44195 14.1667 7.86587 13.9911 8.17843 13.6785C8.49099 13.366 8.66658 12.942 8.66658 12.5C8.66658 12.058 8.49099 11.6341 8.17843 11.3215C7.86587 11.0089 7.44195 10.8333 6.99992 10.8333C6.55789 10.8333 6.13397 11.0089 5.82141 11.3215C5.50885 11.6341 5.33325 12.058 5.33325 12.5C5.33325 12.942 5.50885 13.366 5.82141 13.6785C6.13397 13.9911 6.55789 14.1667 6.99992 14.1667ZM11.9999 6.66668C12.4419 6.66668 12.8659 6.84227 13.1784 7.15483C13.491 7.46739 13.6666 7.89132 13.6666 8.33334V16.6667C13.6666 17.1087 13.491 17.5326 13.1784 17.8452C12.8659 18.1577 12.4419 18.3333 11.9999 18.3333H1.99992C1.55789 18.3333 1.13397 18.1577 0.821407 17.8452C0.508847 17.5326 0.333252 17.1087 0.333252 16.6667V8.33334C0.333252 7.89132 0.508847 7.46739 0.821407 7.15483C1.13397 6.84227 1.55789 6.66668 1.99992 6.66668H2.83325V5.00001C2.83325 3.89494 3.27224 2.83513 4.05364 2.05373C4.83504 1.27233 5.89485 0.833344 6.99992 0.833344C7.54709 0.833344 8.08891 0.941118 8.59443 1.15051C9.09996 1.35991 9.55929 1.66682 9.9462 2.05373C10.3331 2.44064 10.64 2.89997 10.8494 3.4055C11.0588 3.91102 11.1666 4.45284 11.1666 5.00001V6.66668H11.9999ZM6.99992 2.50001C6.33688 2.50001 5.70099 2.7634 5.23215 3.23224C4.76331 3.70108 4.49992 4.33697 4.49992 5.00001V6.66668H9.49992V5.00001C9.49992 4.33697 9.23653 3.70108 8.76768 3.23224C8.29884 2.7634 7.66296 2.50001 6.99992 2.50001Z" fill="#2D4555"/>
</svg>
