<svg width="49" height="28" viewBox="0 0 49 28" fill="none" xmlns="http://www.w3.org/2000/svg">
<rect width="49" height="28" rx="6" fill="black"/>
<path d="M24.5145 19.9937C23.1228 21.1668 21.3175 21.875 19.3448 21.875C14.9432 21.875 11.375 18.3492 11.375 14C11.375 9.65076 14.9432 6.125 19.3448 6.125C21.3175 6.125 23.1228 6.83317 24.5145 8.00626C25.9062 6.83317 27.7115 6.125 29.6842 6.125C34.0858 6.125 37.654 9.65076 37.654 14C37.654 18.3492 34.0858 21.875 29.6842 21.875C27.7115 21.875 25.9062 21.1668 24.5145 19.9937Z" fill="#ED0006"/>
<path d="M24.5146 19.9937C26.2282 18.5493 27.3148 16.4 27.3148 14C27.3148 11.6 26.2282 9.45071 24.5146 8.00629C25.9064 6.83318 27.7117 6.125 29.6843 6.125C34.086 6.125 37.6542 9.65076 37.6542 14C37.6542 18.3492 34.086 21.875 29.6843 21.875C27.7117 21.875 25.9064 21.1668 24.5146 19.9937Z" fill="#F9A000"/>
<path d="M24.5145 19.9938C26.2281 18.5494 27.3147 16.4001 27.3147 14.0001C27.3147 11.6 26.2281 9.45077 24.5145 8.00635C22.8009 9.45077 21.7144 11.6 21.7144 14.0001C21.7144 16.4001 22.8009 18.5494 24.5145 19.9938Z" fill="#FF5E00"/>
<rect x="0.5" y="0.5" width="48" height="27" rx="5.5" stroke="black" stroke-opacity="0.14"/>
</svg>
