<svg width="14" height="19" viewBox="0 0 14 19" fill="none" xmlns="http://www.w3.org/2000/svg">
<path d="M6.99998 12C8.65998 12 9.98998 10.66 9.98998 9L9.99998 3C9.99998 1.34 8.65998 0 6.99998 0C5.33998 0 3.99998 1.34 3.99998 3V9C3.99998 10.66 5.33998 12 6.99998 12ZM13.08 9C12.66 9 12.31 9.3 12.25 9.71C11.88 12.32 9.52998 14.1 6.99998 14.1C4.46998 14.1 2.11998 12.33 1.74998 9.71C1.71918 9.51205 1.61857 9.33166 1.46634 9.20144C1.31411 9.07122 1.12031 8.99977 0.919982 9C0.399982 9 -1.82241e-05 9.46 0.0699818 9.97C0.529982 12.94 3.02998 15.27 5.99998 15.72V18C5.99998 18.55 6.44998 19 6.99998 19C7.54998 19 7.99998 18.55 7.99998 18V15.72C10.96 15.29 13.47 12.94 13.93 9.97C13.9461 9.84894 13.9361 9.72583 13.9008 9.60894C13.8654 9.49204 13.8055 9.38404 13.725 9.29219C13.6445 9.20034 13.5453 9.12675 13.4341 9.07636C13.3228 9.02597 13.2021 8.99993 13.08 9Z" fill="white"/>
</svg>
