<svg width="49" height="28" viewBox="0 0 49 28" fill="none" xmlns="http://www.w3.org/2000/svg">
<rect width="49" height="28" rx="6" fill="#003087"/>
<path fill-rule="evenodd" clip-rule="evenodd" d="M12.6419 9.24802C12.1594 8.91627 11.5297 8.75 10.7528 8.75H7.74527C7.50712 8.75 7.37555 8.8691 7.35056 9.10708L6.12883 16.7762C6.11614 16.8515 6.13498 16.9204 6.1852 16.983C6.23513 17.0457 6.29793 17.0769 6.37313 17.0769H7.8017C8.05226 17.0769 8.18998 16.9581 8.21526 16.7199L8.55355 14.6523C8.5659 14.5521 8.60997 14.4706 8.68518 14.4079C8.76033 14.3452 8.85433 14.3043 8.96711 14.2855C9.0799 14.2669 9.18625 14.2575 9.28668 14.2575C9.38682 14.2575 9.50581 14.2639 9.64388 14.2764C9.7816 14.2888 9.86939 14.295 9.90702 14.295C10.9846 14.295 11.8305 13.9913 12.4446 13.3833C13.0585 12.7757 13.3658 11.9331 13.3658 10.8551C13.3658 10.1158 13.1243 9.58011 12.6419 9.24785V9.24802ZM11.0913 11.5508C11.0284 11.9895 10.8657 12.2776 10.6026 12.4154C10.3394 12.5535 9.96344 12.6222 9.47479 12.6222L8.85444 12.641L9.17407 10.6296C9.199 10.4919 9.28042 10.423 9.41837 10.423H9.77562C10.2766 10.423 10.6403 10.4952 10.8658 10.6391C11.0913 10.7833 11.1665 11.0873 11.0913 11.5508ZM27.5762 11.7765C27.5761 11.714 27.551 11.6544 27.5012 11.5982C27.4509 11.5418 27.3945 11.5134 27.332 11.5134H25.8846C25.7465 11.5134 25.6337 11.5764 25.5461 11.7014L23.5537 14.6338L22.7266 11.8143C22.6637 11.6139 22.526 11.5134 22.3131 11.5134H20.9031C20.8403 11.5134 20.784 11.5417 20.7342 11.5982C20.6839 11.6544 20.6589 11.7142 20.6589 11.7766C20.6589 11.8018 20.7811 12.1713 21.0254 12.8856C21.2697 13.6001 21.5329 14.3708 21.8149 15.198C22.0969 16.0249 22.244 16.4637 22.2566 16.5134C21.229 17.9172 20.7154 18.669 20.7154 18.7691C20.7154 18.9322 20.7967 19.0135 20.9597 19.0135H22.4071C22.5449 19.0135 22.6576 18.951 22.7455 18.8257L27.5388 11.9081C27.5637 11.8833 27.5762 11.8396 27.5762 11.7765ZM18.2715 11.5135H19.7001C19.7752 11.5135 19.8377 11.5449 19.8879 11.6074C19.9379 11.6702 19.9566 11.739 19.9442 11.8142L19.1736 16.7203C19.136 16.9586 18.998 17.0774 18.76 17.0774H17.4631C17.3001 17.0774 17.2187 16.9774 17.2187 16.7767C17.2187 16.664 17.2436 16.5324 17.2939 16.3821C17.0684 16.6329 16.7676 16.8333 16.3917 16.9836C16.0158 17.1339 15.6522 17.2092 15.3014 17.2092C14.5745 17.2092 13.9951 16.9902 13.5628 16.5513C13.1304 16.1128 12.9142 15.5239 12.9142 14.7844C12.9142 13.8697 13.2305 13.0738 13.8634 12.397C14.4962 11.7203 15.2638 11.3819 16.1661 11.3819C17.0182 11.3819 17.6135 11.6328 17.9518 12.134C17.9895 11.7203 18.0958 11.5135 18.2715 11.5135ZM16.0723 15.6866C16.5356 15.6866 16.9274 15.5334 17.247 15.226C17.5666 14.9193 17.7263 14.5339 17.7264 14.0702C17.7264 13.7067 17.6103 13.4216 17.3787 13.2148C17.1466 13.0081 16.8553 12.9047 16.5046 12.9047C16.0407 12.9047 15.6522 13.0644 15.3391 13.384C15.0257 13.7035 14.8692 14.0955 14.8692 14.5588C14.8692 14.9101 14.9787 15.1858 15.1981 15.3859C15.4173 15.5865 15.7086 15.6866 16.0723 15.6866Z" fill="white"/>
<path fill-rule="evenodd" clip-rule="evenodd" d="M32.1065 8.75C32.8835 8.75 33.513 8.91627 33.9955 9.24802V9.24785C34.4779 9.58005 34.7192 10.1158 34.7192 10.8551C34.7192 11.9331 34.4122 12.7757 33.7981 13.3833C33.184 13.9913 32.3383 14.295 31.2605 14.295C31.2231 14.295 31.1351 14.2888 30.9973 14.2764C30.8594 14.2639 30.7404 14.2575 30.6402 14.2575C30.5398 14.2575 30.4334 14.2669 30.3207 14.2855C30.2078 14.3043 30.114 14.3452 30.0387 14.4079C29.9634 14.4706 29.9196 14.5521 29.9071 14.6523L29.5688 16.8326C29.5185 16.9956 29.4183 17.0769 29.2679 17.0769H27.7266C27.6514 17.0769 27.5885 17.0457 27.5388 16.983C27.4885 16.9204 27.4697 16.8515 27.4824 16.7762L28.7042 9.10708C28.7291 8.8691 28.867 8.75 29.1177 8.75H32.1065ZM30.8283 12.6221C31.3796 12.6221 31.7932 12.5281 32.0689 12.3402C32.3444 12.1521 32.4824 11.7951 32.4824 11.2686C32.4824 11.0181 32.4073 10.8269 32.2568 10.6952C32.1065 10.5637 31.9496 10.4855 31.787 10.4604C31.6238 10.4354 31.4046 10.4228 31.1288 10.4228H30.7906C30.6526 10.4228 30.5711 10.4919 30.5463 10.6295L30.2267 12.6409L30.8283 12.6221ZM44.3803 8.75H42.9895C42.8513 8.75 42.7699 8.81895 42.7451 8.9569L41.5233 16.7765L41.5044 16.8141C41.5044 16.877 41.5295 16.9363 41.5797 16.9927C41.6296 17.049 41.6925 17.0772 41.7676 17.0772H43.0084C43.2461 17.0772 43.3777 16.9584 43.4032 16.7201L44.6249 9.0321V9.01343C44.6249 8.83791 44.5431 8.75023 44.3803 8.75023V8.75ZM41.0539 11.5135H39.6253C39.4497 11.5135 39.3435 11.7203 39.3059 12.134C38.9797 11.6328 38.3849 11.3819 37.52 11.3819C36.6178 11.3819 35.8501 11.7203 35.2175 12.397C34.5845 13.0738 34.2682 13.8697 34.2682 14.7844C34.2682 15.5239 34.4844 16.1128 34.9166 16.5513C35.349 16.9902 35.9284 17.2092 36.6555 17.2092C37.0189 17.2092 37.3885 17.1339 37.7645 16.9836C38.1404 16.8333 38.4346 16.6329 38.648 16.3821C38.648 16.3947 38.6352 16.4509 38.6105 16.5511C38.5851 16.6515 38.5728 16.727 38.5728 16.7767C38.5728 16.9774 38.654 17.0774 38.8172 17.0774H40.1143C40.3521 17.0774 40.4901 16.9586 40.5276 16.7203L41.2984 11.8142C41.3107 11.739 41.292 11.6702 41.2419 11.6074C41.1916 11.5449 41.129 11.5135 41.0539 11.5135ZM38.6009 15.2167C38.2814 15.53 37.896 15.6866 37.4449 15.6866C37.0813 15.6866 36.7871 15.5865 36.5614 15.3859C36.3357 15.1858 36.223 14.9101 36.223 14.5588C36.223 14.0955 36.3796 13.7035 36.6931 13.384C37.0059 13.0644 37.3947 12.9047 37.8584 12.9047C38.209 12.9047 38.5004 13.0081 38.7324 13.2148C38.964 13.4216 39.0803 13.7067 39.0803 14.0702C39.0802 14.5213 38.9204 14.9036 38.6009 15.2167Z" fill="#009CDE"/>
<rect x="0.5" y="0.5" width="48" height="27" rx="5.5" stroke="black" stroke-opacity="0.14"/>
</svg>
