<svg width="32" height="32" viewBox="0 0 32 32" fill="none" xmlns="http://www.w3.org/2000/svg">
<g clip-path="url(#clip0_1_735)">
<path d="M8 7.26868C12.416 7.26868 16 10.8527 16 15.2687V16.0001H0.731375C0.329125 16.0001 0 15.6709 0 15.2687C0 10.8527 3.584 7.26868 8 7.26868Z" fill="#FBBB05"/>
<path d="M24.7314 8C24.7314 12.416 21.1474 16 16.7314 16H16V0.731375C16 0.329125 16.3291 0 16.7314 0C21.1474 0 24.7314 3.584 24.7314 8Z" fill="#E94335"/>
<path d="M24 24.7314C19.584 24.7314 16 21.1474 16 16.7314V16H31.2686C31.6709 16 32 16.3291 32 16.7314C32 21.1474 28.416 24.7314 24 24.7314Z" fill="#4285F4"/>
<path d="M7.26855 24C7.26855 19.584 10.8526 16 15.2686 16H15.9999V31.2686C15.9999 31.6709 15.6708 32 15.2686 32C10.8526 32 7.26855 28.416 7.26855 24Z" fill="#0F9D58"/>
</g>
<defs>
<clipPath id="clip0_1_735">
<rect width="32" height="32" fill="white"/>
</clipPath>
</defs>
</svg>
