<svg width="36" height="36" viewBox="0 0 36 36" fill="none" xmlns="http://www.w3.org/2000/svg">
<path d="M25.9312 1.125L19.575 10.6313H22.725L29.8125 1.125H25.9312Z" fill="#428BC1"/>
<path d="M22.7251 1.125L16.425 10.6313H19.575L25.9313 1.125H22.7251Z" fill="#E8E8E8"/>
<path d="M19.5749 1.125L13.2749 10.6313H16.4249L22.7249 1.125H19.5749Z" fill="#ED4C5C"/>
<path d="M18.0001 34.8751C24.3997 34.8751 29.5876 29.6872 29.5876 23.2876C29.5876 16.888 24.3997 11.7001 18.0001 11.7001C11.6005 11.7001 6.4126 16.888 6.4126 23.2876C6.4126 29.6872 11.6005 34.8751 18.0001 34.8751Z" fill="#B2C1C0"/>
<path d="M12.2064 8.49377C11.9252 8.49377 11.7002 8.71877 11.7002 9.00002V13.725C11.7002 14.0063 11.9252 14.2313 12.2064 14.2313H23.7939C24.0752 14.2313 24.3002 14.0063 24.3002 13.725V9.00002C24.3002 8.71877 24.0752 8.49377 23.7939 8.49377H12.2064ZM23.2877 12.2063C23.2877 12.4875 23.0627 12.7125 22.7814 12.7125H13.2752C12.9939 12.7125 12.7689 12.4875 12.7689 12.2063V10.0688C12.7689 9.78752 12.9939 9.56252 13.2752 9.56252H22.7814C23.0627 9.56252 23.2877 9.78752 23.2877 10.0688V12.2063Z" fill="#B2C1C0"/>
<path opacity="0.5" d="M8.0437 24.6375C8.0437 18.3375 12.8812 13.2188 19.0687 12.7688C18.7875 12.7688 18.45 12.7125 18.1687 12.7125C12.2625 12.7125 7.4812 17.4938 7.4812 23.4563C7.4812 25.2 7.9312 26.8875 8.66245 28.35C8.2687 27.1688 8.0437 25.9313 8.0437 24.6375Z" fill="#3E4347"/>
<path opacity="0.33" d="M22.4437 32.2313C27.675 28.7438 29.25 21.9375 26.2125 16.65C26.3812 16.875 26.55 17.1 26.7187 17.3813C29.9812 22.2188 28.6312 28.8 23.7375 32.1188C22.275 33.1313 20.6437 33.6938 19.0125 33.8625C20.25 33.4688 21.375 32.9625 22.4437 32.2313Z" fill="white"/>
<path d="M13.275 10.6313H16.425L10.0688 1.125H6.1875L13.275 10.6313Z" fill="#ED4C5C"/>
<path d="M16.4251 10.6313H19.5751L13.2751 1.125H10.0688L16.4251 10.6313Z" fill="#E8E8E8"/>
<path opacity="0.5" d="M18.5062 2.69995L16.9312 5.06245L20.6437 10.6312H22.7249L23.2874 9.8437L18.5062 2.69995Z" fill="#3E4347"/>
<path d="M19.5749 10.6313H22.7249L16.4249 1.125H13.2749L19.5749 10.6313Z" fill="#428BC1"/>
<path opacity="0.5" d="M17.7188 17.7188C16.5376 17.7188 15.5813 18.675 15.5813 19.8H14.0626C14.0626 19.9688 14.0063 20.1375 14.0063 20.3062H16.1438C16.1438 19.125 17.1001 18.1687 18.2813 18.1687C18.7313 18.1687 19.1251 18.3375 19.4626 18.5625C19.0688 18.1125 18.4501 17.7188 17.7188 17.7188ZM21.9376 30.375H14.0626V30.9375H22.5001V28.8H21.9376V30.375ZM17.7188 24.075C16.5376 24.075 15.5813 25.0312 15.5813 26.2125V28.35H16.0876V26.775C16.0876 25.5937 17.0438 24.6375 18.2251 24.6375C20.5313 24.6375 22.4438 22.725 22.4438 20.4187C22.4438 19.125 21.8813 17.9437 20.9251 17.1562C21.5438 17.8875 21.9376 18.8437 21.9376 19.8562C21.9376 22.1625 20.0813 24.075 17.7188 24.075Z" fill="#3E4347"/>
<path opacity="0.33" d="M16.1438 28.2937H21.9375V28.8H16.1438V28.2937ZM18.2812 22.5C19.4625 22.5 20.4187 21.5437 20.4187 20.3625C20.4187 19.6312 20.0813 19.0125 19.5188 18.6187C19.7438 18.9562 19.9125 19.35 19.9125 19.8C19.9125 20.9812 18.9563 21.9375 17.775 21.9375C15.4688 21.9375 13.5563 23.85 13.5563 26.1562V30.375H14.0625V26.6625C14.0625 24.3562 15.9188 22.5 18.2812 22.5ZM18.2812 16.1437C19.2937 16.1437 20.25 16.5375 20.9812 17.1562C20.1937 16.2562 19.0687 15.6375 17.7188 15.6375C15.4125 15.6375 13.5 17.55 13.5 19.8562H14.0625C14.3438 17.775 16.0875 16.1437 18.2812 16.1437Z" fill="white"/>
</svg>
