<svg width="54" height="54" viewBox="0 0 54 54" fill="none" xmlns="http://www.w3.org/2000/svg">
<circle cx="27" cy="27" r="27" fill="#2D4555"/>
<g clip-path="url(#clip0_20_2249)">
<path d="M42.8793 27.0264C43.0148 26.965 43.1318 26.8662 43.2156 26.7422C43.2995 26.6183 43.3465 26.4746 43.3509 26.329C43.3553 26.1834 43.3169 26.0423 43.2405 25.9232C43.164 25.8041 43.0528 25.7122 42.9207 25.659L21.777 17.1276L21.7759 17.1266L21.1199 16.8606C20.9955 16.8103 20.8576 16.7962 20.7213 16.82C20.585 16.8437 20.4557 16.9043 20.3476 16.9951C20.2394 17.086 20.1568 17.2034 20.1087 17.3345C20.0606 17.4657 20.0489 17.6054 20.075 17.7382L20.2114 18.4382L20.2102 18.4414L21.8609 26.9802L19.6892 35.6349L19.6891 35.6391L19.5099 36.3486C19.4763 36.4831 19.4798 36.6221 19.5203 36.7502C19.5608 36.8783 19.6365 36.9906 19.7393 37.0747C19.842 37.1589 19.9677 37.2115 20.1025 37.227C20.2374 37.2425 20.3762 37.2201 20.5036 37.1623L42.8793 27.0264V27.0264ZM38.9614 27.205L23.1963 27.6827L23.3433 27.0971C23.3704 26.9897 23.3737 26.8791 23.3531 26.7732L23.2414 26.1954L39.0065 25.7177L40.7185 26.4088L38.9624 27.206L38.9614 27.205Z" fill="white"/>
</g>
<defs>
<clipPath id="clip0_20_2249">
<rect width="23.0794" height="24.5218" fill="white" transform="translate(27.3398 10) rotate(45)"/>
</clipPath>
</defs>
</svg>
