<svg width="20" height="20" viewBox="0 0 20 20" fill="none" xmlns="http://www.w3.org/2000/svg">
<path d="M9.99985 18.2848C8.36123 18.2848 6.75941 17.7989 5.39695 16.8886C4.03449 15.9782 2.97258 14.6843 2.34551 13.1704C1.71843 11.6565 1.55436 9.99066 1.87404 8.38352C2.19372 6.77639 2.98279 5.30015 4.14147 4.14147C5.30015 2.98279 6.77639 2.19372 8.38352 1.87404C9.99066 1.55436 11.6565 1.71843 13.1704 2.34551C14.6843 2.97258 15.9782 4.03449 16.8886 5.39695C17.7989 6.75941 18.2848 8.36123 18.2848 9.99985C18.2824 12.1964 17.4088 14.3023 15.8555 15.8555C14.3023 17.4088 12.1964 18.2824 9.99985 18.2848ZM9.99985 2.54818C8.52605 2.54818 7.08534 2.98521 5.85992 3.80401C4.6345 4.62281 3.6794 5.7866 3.1154 7.14822C2.55141 8.50983 2.40384 10.0081 2.69136 11.4536C2.97889 12.8991 3.68859 14.2268 4.73072 15.269C5.77286 16.3111 7.10062 17.0208 8.5461 17.3083C9.99158 17.5959 11.4899 17.4483 12.8515 16.8843C14.2131 16.3203 15.3769 15.3652 16.1957 14.1398C17.0145 12.9143 17.4515 11.4736 17.4515 9.99985C17.4493 8.02422 16.6635 6.13014 15.2665 4.73316C13.8696 3.33618 11.9755 2.55039 9.99985 2.54818Z" fill="#9F9F9F"/>
<path d="M13.9106 11.4534C13.6025 12.2398 13.0644 12.915 12.3667 13.391C11.669 13.8669 10.844 14.1215 9.9994 14.1215C9.15479 14.1215 8.3298 13.8669 7.63207 13.391C6.93435 12.915 6.39631 12.2398 6.08815 11.4534C5.88065 10.9617 5.16231 11.3859 5.36898 11.8742C5.75166 12.7866 6.39534 13.5656 7.21921 14.1135C8.04307 14.6613 9.01042 14.9536 9.99981 14.9536C10.9892 14.9536 11.9566 14.6613 12.7804 14.1135C13.6043 13.5656 14.248 12.7866 14.6306 11.8742C14.8365 11.3859 14.119 10.9575 13.9106 11.4534Z" fill="#9F9F9F"/>
<path d="M7.50016 8.55062C8.07546 8.55062 8.54183 8.08425 8.54183 7.50895C8.54183 6.93365 8.07546 6.46729 7.50016 6.46729C6.92487 6.46729 6.4585 6.93365 6.4585 7.50895C6.4585 8.08425 6.92487 8.55062 7.50016 8.55062Z" fill="#9F9F9F"/>
<path d="M12.5002 8.55062C13.0755 8.55062 13.5418 8.08425 13.5418 7.50895C13.5418 6.93365 13.0755 6.46729 12.5002 6.46729C11.9249 6.46729 11.4585 6.93365 11.4585 7.50895C11.4585 8.08425 11.9249 8.55062 12.5002 8.55062Z" fill="#9F9F9F"/>
</svg>
