<svg width="22" height="22" viewBox="0 0 22 22" fill="none" xmlns="http://www.w3.org/2000/svg">
<path d="M0 6C0 3.17157 0 1.75736 0.87868 0.87868C1.75736 0 3.17157 0 6 0H16C18.8284 0 20.2426 0 21.1213 0.87868C22 1.75736 22 3.17157 22 6V16C22 18.8284 22 20.2426 21.1213 21.1213C20.2426 22 18.8284 22 16 22H6C3.17157 22 1.75736 22 0.87868 21.1213C0 20.2426 0 18.8284 0 16V6Z" fill="#2D4555"/>
<path d="M17.3854 7.36448C17.6714 7.07852 17.6714 6.60192 17.3854 6.33062L15.6697 4.61486C15.3984 4.3289 14.9218 4.3289 14.6358 4.61486L13.2867 5.95667L16.0363 8.70629M4.3999 14.8508V17.6004H7.14952L15.2591 9.48352L12.5094 6.7339L4.3999 14.8508Z" fill="white"/>
</svg>
