<svg width="49" height="28" viewBox="0 0 49 28" fill="none" xmlns="http://www.w3.org/2000/svg">
<rect width="49" height="28" rx="6" fill="#00579F"/>
<path d="M30.1717 7.875C31.3233 7.875 32.2546 8.13992 32.8418 8.37986L32.4369 10.9405L32.1677 10.8146C31.629 10.5748 30.9179 10.3352 29.9501 10.3605C28.7747 10.3605 28.2476 10.8775 28.2354 11.3822C28.2354 11.9373 28.873 12.3032 29.9143 12.8458C31.6295 13.691 32.425 14.7253 32.4132 16.0753C32.3891 18.5353 30.3554 20.125 27.2318 20.125C25.8962 20.1123 24.6098 19.8215 23.9116 19.4939L24.3282 16.832L24.7202 17.0214C25.688 17.4634 26.3248 17.6522 27.5134 17.6522C28.3705 17.6522 29.2895 17.286 29.3012 16.4916C29.3012 15.9743 28.9097 15.5956 27.7579 15.0152C26.631 14.4473 25.1244 13.5013 25.1488 11.7982C25.1615 9.48967 27.2318 7.875 30.1717 7.875Z" fill="white"/>
<path d="M19.0729 19.9483H22.0499L23.9117 8.08996H20.9349L19.0729 19.9483Z" fill="white"/>
<path fill-rule="evenodd" clip-rule="evenodd" d="M40.4732 8.08996H38.1705C37.4604 8.08996 36.9209 8.30424 36.6145 9.07385L32.1925 19.9481H35.3162C35.3162 19.9481 35.8305 18.4845 35.941 18.1693H39.7633C39.8487 18.5856 40.1185 19.9481 40.1185 19.9481H42.8749L40.4732 8.08996ZM36.7985 15.7473C37.0436 15.066 37.987 12.4294 37.987 12.4294C37.982 12.4397 38.021 12.3284 38.0789 12.1631C38.1643 11.9191 38.2911 11.5573 38.3787 11.2941L38.5867 12.3159C38.5867 12.3159 39.1505 15.1544 39.2729 15.7473H36.7985Z" fill="white"/>
<path d="M13.6708 16.1762L16.5863 8.08996H19.7342L15.0549 19.9357H11.9068L9.23633 9.56563C11.1228 10.5879 12.8132 12.6439 13.3522 14.5362L13.6708 16.1762Z" fill="white"/>
<path d="M10.9637 8.08984H6.174L6.125 8.32944C9.86128 9.3135 12.3357 11.6855 13.3524 14.5366L12.3112 9.08664C12.1397 8.32928 11.6129 8.11483 10.9637 8.08984Z" fill="#FAA61A"/>
<rect x="0.5" y="0.5" width="48" height="27" rx="5.5" stroke="black" stroke-opacity="0.14"/>
</svg>
