<svg width="54" height="54" viewBox="0 0 54 54" fill="none" xmlns="http://www.w3.org/2000/svg">
<circle cx="27" cy="27" r="27" fill="#2D4555"/>
<path d="M27 30C28.66 30 29.99 28.66 29.99 27L30 21C30 19.34 28.66 18 27 18C25.34 18 24 19.34 24 21V27C24 28.66 25.34 30 27 30ZM33.08 27C32.66 27 32.31 27.3 32.25 27.71C31.88 30.32 29.53 32.1 27 32.1C24.47 32.1 22.12 30.33 21.75 27.71C21.7192 27.5121 21.6186 27.3317 21.4663 27.2014C21.3141 27.0712 21.1203 26.9998 20.92 27C20.4 27 20 27.46 20.07 27.97C20.53 30.94 23.03 33.27 26 33.72V36C26 36.55 26.45 37 27 37C27.55 37 28 36.55 28 36V33.72C30.96 33.29 33.47 30.94 33.93 27.97C33.9461 27.8489 33.9361 27.7258 33.9008 27.6089C33.8654 27.492 33.8055 27.384 33.725 27.2922C33.6445 27.2003 33.5453 27.1268 33.4341 27.0764C33.3228 27.026 33.2021 26.9999 33.08 27V27Z" fill="white"/>
</svg>
